<?xml version="1.0" encoding="UTF-8"?>
<svg xmlns="http://www.w3.org/2000/svg" xmlns:xlink="http://www.w3.org/1999/xlink" width="478pt" height="231pt" viewBox="0 0 478 231" version="1.1">
<g id="surface1">
<path style="fill:none;stroke-width:1;stroke-linecap:round;stroke-linejoin:round;stroke:rgb(0%,0%,0%);stroke-opacity:1;stroke-dasharray:4,4;stroke-miterlimit:10;" d="M -120.725 117.125 L 188.746875 117.125 C 194.26875 117.125 198.746875 121.6 198.746875 127.125 L 198.746875 152.125 C 198.746875 157.65 194.26875 162.125 188.746875 162.125 L -120.725 162.125 C -126.25 162.125 -130.725 157.65 -130.725 152.125 L -130.725 127.125 C -130.725 121.6 -126.25 117.125 -120.725 117.125 Z M -120.725 117.125 " transform="matrix(1.25,0,0,1.25,227.5,-58.75)"/>
<path style="fill:none;stroke-width:1;stroke-linecap:round;stroke-linejoin:round;stroke:rgb(0%,0%,0%);stroke-opacity:1;stroke-dasharray:4,4;stroke-miterlimit:10;" d="M -120.725 48 L 188.746875 48 C 194.26875 48 198.746875 52.475 198.746875 58 L 198.746875 83 C 198.746875 88.525 194.26875 93 188.746875 93 L -120.725 93 C -126.25 93 -130.725 88.525 -130.725 83 L -130.725 58 C -130.725 52.475 -126.25 48 -120.725 48 Z M -120.725 48 " transform="matrix(1.25,0,0,1.25,227.5,-58.75)"/>
<path style="fill:none;stroke-width:1;stroke-linecap:round;stroke-linejoin:round;stroke:rgb(0%,0%,0%);stroke-opacity:1;stroke-dasharray:4,4;stroke-miterlimit:10;" d="M -120.725 186.246875 L 188.746875 186.246875 C 194.26875 186.246875 198.746875 190.725 198.746875 196.246875 L 198.746875 221.246875 C 198.746875 226.76875 194.26875 231.246875 188.746875 231.246875 L -120.725 231.246875 C -126.25 231.246875 -130.725 226.76875 -130.725 221.246875 L -130.725 196.246875 C -130.725 190.725 -126.25 186.246875 -120.725 186.246875 Z M -120.725 186.246875 " transform="matrix(1.25,0,0,1.25,227.5,-58.75)"/>
<path style=" stroke:none;fill-rule:nonzero;fill:rgb(0%,0%,0%);fill-opacity:1;" d="M 12.042969 197.828125 L 12.042969 198.589844 L 14.542969 198.589844 C 14.484375 199.019531 14.425781 199.449219 14.328125 199.859375 L 12.453125 199.859375 L 12.453125 205.152344 L 13.214844 205.152344 L 13.214844 200.582031 L 16.476562 200.582031 L 16.476562 205.152344 L 17.238281 205.152344 L 17.238281 199.859375 L 15.109375 199.859375 C 15.207031 199.449219 15.285156 199.039062 15.34375 198.589844 L 17.628906 198.589844 L 17.628906 197.828125 Z M 15.636719 205.152344 L 15.128906 205.660156 C 15.988281 206.363281 16.671875 207.046875 17.160156 207.671875 L 17.726562 207.105469 C 17.160156 206.460938 16.476562 205.796875 15.636719 205.152344 Z M 14.425781 201.207031 L 14.425781 203.238281 C 14.40625 204.214844 14.191406 204.976562 13.800781 205.582031 C 13.371094 206.167969 12.628906 206.636719 11.554688 206.988281 L 12.003906 207.671875 C 13.117188 207.28125 13.898438 206.773438 14.40625 206.109375 C 14.914062 205.40625 15.1875 204.449219 15.207031 203.238281 L 15.207031 201.207031 Z M 8.585938 199.253906 L 7.980469 199.625 C 8.605469 200.210938 9.132812 200.757812 9.5625 201.285156 L 7.375 201.285156 L 7.375 202.027344 L 8.996094 202.027344 L 8.996094 206.539062 C 8.996094 206.8125 8.878906 206.949219 8.644531 206.949219 C 8.332031 206.949219 8.019531 206.929688 7.667969 206.890625 L 7.824219 207.632812 L 8.917969 207.632812 C 9.464844 207.632812 9.757812 207.320312 9.757812 206.734375 L 9.757812 202.027344 L 10.96875 202.027344 C 10.792969 202.652344 10.617188 203.140625 10.402344 203.570312 L 11.066406 203.84375 C 11.320312 203.335938 11.535156 202.652344 11.730469 201.773438 L 11.730469 201.285156 L 10.441406 201.285156 C 10.285156 201.070312 10.109375 200.855469 9.894531 200.601562 C 10.421875 200.015625 10.929688 199.292969 11.398438 198.472656 L 11.398438 197.828125 L 7.6875 197.828125 L 7.6875 198.589844 L 10.539062 198.589844 C 10.1875 199.136719 9.816406 199.644531 9.425781 200.09375 C 9.171875 199.820312 8.898438 199.546875 8.585938 199.253906 Z M 8.585938 199.253906 "/>
<path style=" stroke:none;fill-rule:nonzero;fill:rgb(0%,0%,0%);fill-opacity:1;" d="M 25.304688 198.140625 L 25.304688 206.949219 L 26.085938 206.949219 L 26.085938 198.140625 Z M 27.667969 197.59375 L 27.667969 207.710938 L 28.46875 207.710938 L 28.46875 197.59375 Z M 23.078125 197.632812 L 23.078125 202.574219 C 23.058594 204.703125 22.609375 206.246094 21.710938 207.203125 L 22.316406 207.75 C 23.3125 206.65625 23.820312 204.9375 23.859375 202.574219 L 23.859375 197.632812 Z M 19.953125 197.476562 L 19.40625 198.023438 C 20.207031 198.628906 20.851562 199.214844 21.339844 199.78125 L 21.886719 199.214844 C 21.359375 198.628906 20.714844 198.0625 19.953125 197.476562 Z M 18.644531 200.816406 L 18.644531 201.578125 L 20.304688 201.578125 L 20.304688 205.953125 C 20.304688 206.148438 20.207031 206.324219 20.050781 206.460938 L 20.363281 207.183594 C 21.046875 206.695312 21.671875 206.128906 22.257812 205.503906 L 22.042969 204.664062 C 21.710938 205.015625 21.378906 205.347656 21.066406 205.640625 L 21.066406 200.816406 Z M 18.644531 200.816406 "/>
<path style=" stroke:none;fill-rule:nonzero;fill:rgb(0%,0%,0%);fill-opacity:1;" d="M 33.449219 205.40625 C 32.433594 205.835938 31.222656 206.167969 29.855469 206.421875 L 29.953125 207.242188 C 31.261719 206.96875 32.433594 206.617188 33.449219 206.207031 Z M 31.75 197.398438 C 31.339844 198.726562 30.871094 199.878906 30.304688 200.914062 C 30.207031 201.050781 30.089844 201.167969 29.953125 201.226562 L 30.167969 201.96875 C 30.753906 201.871094 31.320312 201.753906 31.886719 201.636719 C 31.339844 202.691406 30.851562 203.433594 30.460938 203.882812 C 30.363281 203.980469 30.226562 204.058594 30.089844 204.136719 L 30.304688 204.878906 C 31.339844 204.722656 32.414062 204.449219 33.546875 204.019531 L 33.546875 203.277344 C 32.785156 203.570312 32.023438 203.785156 31.28125 203.941406 C 31.886719 203.140625 32.667969 201.8125 33.625 199.9375 L 32.882812 199.644531 C 32.667969 200.09375 32.472656 200.503906 32.257812 200.914062 C 31.808594 200.992188 31.359375 201.070312 30.910156 201.148438 C 31.457031 200.289062 31.984375 199.136719 32.53125 197.691406 Z M 34.816406 204.15625 C 34.484375 205.09375 34.015625 205.992188 33.390625 206.871094 L 34.09375 207.261719 C 34.621094 206.5 35.109375 205.5625 35.519531 204.449219 Z M 39.035156 204.15625 L 38.3125 204.390625 C 38.761719 205.210938 39.171875 206.167969 39.542969 207.261719 L 40.226562 206.949219 C 39.894531 205.953125 39.484375 205.035156 39.035156 204.15625 Z M 36.515625 207.574219 C 37.160156 207.574219 37.492188 207.28125 37.492188 206.675781 L 37.492188 203.511719 L 39.875 203.511719 L 39.875 202.789062 L 37.492188 202.789062 L 37.492188 200.601562 L 35.988281 200.601562 C 36.105469 200.230469 36.242188 199.800781 36.378906 199.390625 L 39.875 199.390625 L 39.875 198.628906 L 36.613281 198.628906 C 36.710938 198.257812 36.808594 197.886719 36.90625 197.496094 L 36.125 197.359375 C 36.007812 197.789062 35.910156 198.21875 35.792969 198.628906 L 33.292969 198.628906 L 33.292969 199.390625 L 35.578125 199.390625 C 35.441406 199.800781 35.304688 200.210938 35.167969 200.601562 L 33.703125 200.601562 L 33.703125 201.34375 L 34.875 201.34375 C 34.640625 201.871094 34.386719 202.378906 34.152344 202.808594 L 34.328125 203.511719 L 36.710938 203.511719 L 36.710938 206.441406 C 36.710938 206.734375 36.554688 206.871094 36.28125 206.871094 L 35.207031 206.832031 L 35.402344 207.574219 Z M 35.695312 201.34375 L 36.710938 201.34375 L 36.710938 202.789062 L 35.050781 202.789062 C 35.265625 202.339844 35.480469 201.851562 35.695312 201.34375 Z M 35.695312 201.34375 "/>
<path style="fill:none;stroke-width:1;stroke-linecap:round;stroke-linejoin:round;stroke:rgb(0%,0%,0%);stroke-opacity:1;stroke-miterlimit:10;" d="M -119.475 195.496875 L -66.95 195.496875 L -66.95 221.996875 L -119.475 221.996875 Z M -119.475 195.496875 " transform="matrix(1.25,0,0,1.25,227.5,-58.75)"/>
<path style=" stroke:none;fill-rule:nonzero;fill:rgb(0%,0%,0%);fill-opacity:1;" d="M 88.726562 205.75 L 86.949219 199.910156 L 87.964844 199.910156 L 88.902344 203.289062 L 89.234375 204.539062 C 89.246094 204.476562 89.351562 204.070312 89.546875 203.328125 L 90.464844 199.910156 L 91.480469 199.910156 L 92.359375 203.308594 L 92.652344 204.421875 L 92.984375 203.289062 L 93.980469 199.910156 L 94.9375 199.910156 L 93.121094 205.75 L 92.105469 205.75 L 91.167969 202.253906 L 90.933594 201.257812 L 89.761719 205.75 Z M 88.726562 205.75 "/>
<path style=" stroke:none;fill-rule:nonzero;fill:rgb(0%,0%,0%);fill-opacity:1;" d="M 95.40625 202.839844 C 95.40625 201.761719 95.703125 200.960938 96.304688 200.4375 C 96.8125 200.007812 97.421875 199.792969 98.140625 199.792969 C 98.945312 199.792969 99.605469 200.058594 100.113281 200.574219 C 100.621094 201.097656 100.875 201.820312 100.875 202.742188 C 100.875 203.5 100.757812 204.089844 100.523438 204.519531 C 100.300781 204.949219 99.976562 205.292969 99.546875 205.535156 C 99.117188 205.769531 98.648438 205.886719 98.140625 205.886719 C 97.320312 205.886719 96.65625 205.628906 96.148438 205.105469 C 95.652344 204.574219 95.40625 203.816406 95.40625 202.839844 Z M 96.421875 202.839844 C 96.421875 203.582031 96.582031 204.144531 96.910156 204.519531 C 97.234375 204.886719 97.644531 205.066406 98.140625 205.066406 C 98.632812 205.066406 99.042969 204.886719 99.371094 204.519531 C 99.695312 204.144531 99.859375 203.574219 99.859375 202.800781 C 99.859375 202.089844 99.695312 201.542969 99.371094 201.160156 C 99.042969 200.785156 98.632812 200.59375 98.140625 200.59375 C 97.644531 200.59375 97.234375 200.785156 96.910156 201.160156 C 96.582031 201.527344 96.421875 202.089844 96.421875 202.839844 Z M 96.421875 202.839844 "/>
<path style=" stroke:none;fill-rule:nonzero;fill:rgb(0%,0%,0%);fill-opacity:1;" d="M 102.015625 205.75 L 102.015625 199.910156 L 102.914062 199.910156 L 102.914062 200.808594 C 103.132812 200.394531 103.34375 200.121094 103.539062 199.988281 C 103.734375 199.863281 103.949219 199.792969 104.183594 199.792969 C 104.507812 199.792969 104.847656 199.902344 105.199219 200.105469 L 104.847656 201.023438 C 104.613281 200.882812 104.371094 200.808594 104.125 200.808594 C 103.914062 200.808594 103.71875 200.878906 103.539062 201.003906 C 103.367188 201.136719 103.246094 201.316406 103.167969 201.550781 C 103.0625 201.902344 103.011719 202.289062 103.011719 202.703125 L 103.011719 205.75 Z M 102.015625 205.75 "/>
<path style=" stroke:none;fill-rule:nonzero;fill:rgb(0%,0%,0%);fill-opacity:1;" d="M 109.570312 205.75 L 109.570312 205.007812 C 109.191406 205.59375 108.644531 205.886719 107.929688 205.886719 C 107.472656 205.886719 107.050781 205.753906 106.660156 205.496094 C 106.269531 205.238281 105.960938 204.882812 105.742188 204.421875 C 105.53125 203.96875 105.429688 203.441406 105.429688 202.839844 C 105.429688 202.253906 105.527344 201.726562 105.722656 201.257812 C 105.917969 200.78125 106.203125 200.414062 106.582031 200.164062 C 106.972656 199.921875 107.40625 199.792969 107.890625 199.792969 C 108.242188 199.792969 108.554688 199.867188 108.828125 200.007812 C 109.101562 200.15625 109.320312 200.351562 109.492188 200.59375 L 109.492188 197.703125 L 110.488281 197.703125 L 110.488281 205.75 Z M 106.445312 202.839844 C 106.445312 203.582031 106.601562 204.144531 106.914062 204.519531 C 107.226562 204.886719 107.597656 205.066406 108.027344 205.066406 C 108.457031 205.066406 108.820312 204.890625 109.121094 204.539062 C 109.433594 204.1875 109.589844 203.652344 109.589844 202.917969 C 109.589844 202.128906 109.433594 201.542969 109.121094 201.160156 C 108.808594 200.785156 108.429688 200.59375 107.988281 200.59375 C 107.542969 200.59375 107.171875 200.78125 106.875 201.140625 C 106.585938 201.507812 106.445312 202.074219 106.445312 202.839844 Z M 106.445312 202.839844 "/>
<path style=" stroke:none;fill-rule:nonzero;fill:rgb(0%,0%,0%);fill-opacity:1;" d="M 116.960938 204.792969 L 116.960938 205.75 L 111.628906 205.75 C 111.628906 205.515625 111.667969 205.292969 111.746094 205.066406 C 111.886719 204.707031 112.109375 204.34375 112.410156 203.992188 C 112.707031 203.640625 113.136719 203.242188 113.699219 202.78125 C 114.570312 202.054688 115.15625 201.484375 115.457031 201.0625 C 115.769531 200.648438 115.925781 200.253906 115.925781 199.871094 C 115.925781 199.480469 115.78125 199.160156 115.496094 198.894531 C 115.222656 198.621094 114.859375 198.484375 114.421875 198.484375 C 113.9375 198.484375 113.554688 198.632812 113.269531 198.914062 C 112.980469 199.203125 112.839844 199.597656 112.839844 200.105469 L 111.824219 199.988281 C 111.886719 199.238281 112.148438 198.660156 112.605469 198.269531 C 113.058594 197.871094 113.671875 197.664062 114.441406 197.664062 C 115.207031 197.664062 115.8125 197.878906 116.257812 198.308594 C 116.710938 198.738281 116.941406 199.265625 116.941406 199.890625 C 116.941406 200.21875 116.875 200.535156 116.746094 200.847656 C 116.613281 201.160156 116.394531 201.492188 116.082031 201.84375 C 115.78125 202.1875 115.28125 202.65625 114.578125 203.25 C 113.976562 203.75 113.59375 204.085938 113.425781 204.265625 C 113.253906 204.453125 113.117188 204.628906 113.015625 204.792969 Z M 116.960938 204.792969 "/>
<path style=" stroke:none;fill-rule:nonzero;fill:rgb(0%,0%,0%);fill-opacity:1;" d="M 119.917969 205.75 L 117.691406 199.910156 L 118.746094 199.910156 L 119.996094 203.40625 C 120.121094 203.789062 120.25 204.179688 120.367188 204.578125 C 120.453125 204.28125 120.582031 203.914062 120.738281 203.484375 L 122.027344 199.910156 L 123.042969 199.910156 L 120.835938 205.75 Z M 119.917969 205.75 "/>
<path style=" stroke:none;fill-rule:nonzero;fill:rgb(0%,0%,0%);fill-opacity:1;" d="M 127.90625 203.875 L 128.941406 203.992188 C 128.769531 204.59375 128.460938 205.0625 128.023438 205.398438 C 127.59375 205.726562 127.035156 205.886719 126.363281 205.886719 C 125.511719 205.886719 124.839844 205.628906 124.332031 205.105469 C 123.832031 204.574219 123.589844 203.832031 123.589844 202.878906 C 123.589844 201.902344 123.84375 201.152344 124.351562 200.613281 C 124.859375 200.066406 125.511719 199.792969 126.324219 199.792969 C 127.105469 199.792969 127.734375 200.0625 128.21875 200.59375 C 128.710938 201.117188 128.960938 201.859375 128.960938 202.820312 C 128.960938 202.890625 128.960938 202.976562 128.960938 203.09375 L 124.605469 203.09375 C 124.644531 203.734375 124.824219 204.222656 125.152344 204.558594 C 125.472656 204.902344 125.882812 205.066406 126.382812 205.066406 C 126.742188 205.066406 127.050781 204.980469 127.300781 204.792969 C 127.558594 204.597656 127.757812 204.296875 127.90625 203.875 Z M 124.664062 202.273438 L 127.925781 202.273438 C 127.886719 201.78125 127.757812 201.410156 127.554688 201.160156 C 127.242188 200.785156 126.832031 200.59375 126.324219 200.59375 C 125.863281 200.59375 125.484375 200.75 125.171875 201.0625 C 124.867188 201.367188 124.703125 201.765625 124.664062 202.273438 Z M 124.664062 202.273438 "/>
<path style=" stroke:none;fill-rule:nonzero;fill:rgb(0%,0%,0%);fill-opacity:1;" d="M 133.988281 203.621094 L 134.964844 203.738281 C 134.855469 204.417969 134.582031 204.945312 134.144531 205.320312 C 133.699219 205.703125 133.15625 205.886719 132.523438 205.886719 C 131.726562 205.886719 131.085938 205.628906 130.609375 205.105469 C 130.125 204.589844 129.886719 203.835938 129.886719 202.859375 C 129.886719 202.226562 129.988281 201.667969 130.199219 201.199219 C 130.402344 200.730469 130.714844 200.378906 131.136719 200.144531 C 131.566406 199.910156 132.035156 199.792969 132.542969 199.792969 C 133.167969 199.792969 133.679688 199.960938 134.085938 200.28125 C 134.484375 200.59375 134.75 201.042969 134.867188 201.628906 L 133.910156 201.785156 C 133.816406 201.394531 133.65625 201.101562 133.421875 200.90625 C 133.1875 200.703125 132.902344 200.59375 132.582031 200.59375 C 132.074219 200.59375 131.664062 200.78125 131.351562 201.140625 C 131.046875 201.492188 130.902344 202.054688 130.902344 202.820312 C 130.902344 203.617188 131.046875 204.1875 131.351562 204.539062 C 131.648438 204.890625 132.039062 205.066406 132.523438 205.066406 C 132.914062 205.066406 133.234375 204.949219 133.5 204.714844 C 133.757812 204.480469 133.917969 204.121094 133.988281 203.621094 Z M 133.988281 203.621094 "/>
<path style="fill:none;stroke-width:1;stroke-linecap:round;stroke-linejoin:round;stroke:rgb(0%,0%,0%);stroke-opacity:1;stroke-miterlimit:10;" d="M -43.53125 195.496875 L 8.996875 195.496875 L 8.996875 221.996875 L -43.53125 221.996875 Z M -43.53125 195.496875 " transform="matrix(1.25,0,0,1.25,227.5,-58.75)"/>
<path style=" stroke:none;fill-rule:nonzero;fill:rgb(0%,0%,0%);fill-opacity:1;" d="M 195.21875 202.585938 L 195.21875 201.648438 L 198.636719 201.648438 L 198.636719 204.636719 C 198.117188 205.058594 197.574219 205.371094 197.015625 205.574219 C 196.457031 205.78125 195.882812 205.886719 195.296875 205.886719 C 194.515625 205.886719 193.800781 205.722656 193.148438 205.378906 C 192.496094 205.042969 192.007812 204.554688 191.683594 203.914062 C 191.359375 203.28125 191.195312 202.5625 191.195312 201.765625 C 191.195312 200.984375 191.359375 200.257812 191.683594 199.578125 C 192.007812 198.890625 192.476562 198.382812 193.089844 198.054688 C 193.714844 197.734375 194.425781 197.566406 195.21875 197.566406 C 195.804688 197.566406 196.332031 197.664062 196.800781 197.859375 C 197.269531 198.046875 197.632812 198.304688 197.894531 198.640625 C 198.167969 198.96875 198.375 199.402344 198.519531 199.949219 L 197.5625 200.203125 C 197.433594 199.804688 197.277344 199.480469 197.09375 199.246094 C 196.925781 199.011719 196.671875 198.828125 196.332031 198.679688 C 196.007812 198.539062 195.636719 198.464844 195.21875 198.464844 C 194.738281 198.464844 194.3125 198.542969 193.949219 198.699219 C 193.597656 198.847656 193.3125 199.042969 193.089844 199.285156 C 192.882812 199.519531 192.71875 199.785156 192.601562 200.066406 C 192.394531 200.574219 192.289062 201.117188 192.289062 201.6875 C 192.289062 202.421875 192.414062 203.027344 192.660156 203.503906 C 192.90625 203.988281 193.265625 204.34375 193.734375 204.578125 C 194.203125 204.8125 194.703125 204.929688 195.238281 204.929688 C 195.707031 204.929688 196.15625 204.847656 196.585938 204.675781 C 197.027344 204.496094 197.367188 204.300781 197.601562 204.089844 L 197.601562 202.585938 Z M 195.21875 202.585938 "/>
<path style=" stroke:none;fill-rule:nonzero;fill:rgb(0%,0%,0%);fill-opacity:1;" d="M 200.066406 205.75 L 200.066406 197.703125 L 201.042969 197.703125 L 201.042969 205.75 Z M 200.066406 205.75 "/>
<path style=" stroke:none;fill-rule:nonzero;fill:rgb(0%,0%,0%);fill-opacity:1;" d="M 202.207031 202.839844 C 202.207031 201.761719 202.507812 200.960938 203.105469 200.4375 C 203.613281 200.007812 204.226562 199.792969 204.941406 199.792969 C 205.75 199.792969 206.40625 200.058594 206.914062 200.574219 C 207.421875 201.097656 207.675781 201.820312 207.675781 202.742188 C 207.675781 203.5 207.558594 204.089844 207.324219 204.519531 C 207.101562 204.949219 206.777344 205.292969 206.347656 205.535156 C 205.917969 205.769531 205.449219 205.886719 204.941406 205.886719 C 204.121094 205.886719 203.457031 205.628906 202.949219 205.105469 C 202.453125 204.574219 202.207031 203.816406 202.207031 202.839844 Z M 203.222656 202.839844 C 203.222656 203.582031 203.386719 204.144531 203.710938 204.519531 C 204.035156 204.886719 204.445312 205.066406 204.941406 205.066406 C 205.4375 205.066406 205.847656 204.886719 206.171875 204.519531 C 206.496094 204.144531 206.660156 203.574219 206.660156 202.800781 C 206.660156 202.089844 206.496094 201.542969 206.171875 201.160156 C 205.847656 200.785156 205.4375 200.59375 204.941406 200.59375 C 204.445312 200.59375 204.035156 200.785156 203.710938 201.160156 C 203.386719 201.527344 203.222656 202.089844 203.222656 202.839844 Z M 203.222656 202.839844 "/>
<path style=" stroke:none;fill-rule:nonzero;fill:rgb(0%,0%,0%);fill-opacity:1;" d="M 211.253906 205.75 L 208.148438 197.703125 L 209.300781 197.703125 L 211.390625 203.542969 C 211.554688 204.011719 211.691406 204.457031 211.800781 204.871094 C 211.925781 204.433594 212.078125 203.988281 212.25 203.542969 L 214.417969 197.703125 L 215.511719 197.703125 L 212.347656 205.75 Z M 211.253906 205.75 "/>
<path style=" stroke:none;fill-rule:nonzero;fill:rgb(0%,0%,0%);fill-opacity:1;" d="M 219.699219 203.875 L 220.734375 203.992188 C 220.5625 204.59375 220.253906 205.0625 219.816406 205.398438 C 219.386719 205.726562 218.828125 205.886719 218.15625 205.886719 C 217.304688 205.886719 216.632812 205.628906 216.125 205.105469 C 215.625 204.574219 215.382812 203.832031 215.382812 202.878906 C 215.382812 201.902344 215.636719 201.152344 216.144531 200.613281 C 216.652344 200.066406 217.304688 199.792969 218.117188 199.792969 C 218.898438 199.792969 219.527344 200.0625 220.011719 200.59375 C 220.503906 201.117188 220.753906 201.859375 220.753906 202.820312 C 220.753906 202.890625 220.753906 202.976562 220.753906 203.09375 L 216.398438 203.09375 C 216.4375 203.734375 216.617188 204.222656 216.945312 204.558594 C 217.265625 204.902344 217.675781 205.066406 218.175781 205.066406 C 218.535156 205.066406 218.84375 204.980469 219.09375 204.792969 C 219.351562 204.597656 219.550781 204.296875 219.699219 203.875 Z M 216.457031 202.273438 L 219.71875 202.273438 C 219.679688 201.78125 219.550781 201.410156 219.347656 201.160156 C 219.035156 200.785156 218.625 200.59375 218.117188 200.59375 C 217.65625 200.59375 217.277344 200.75 216.964844 201.0625 C 216.660156 201.367188 216.496094 201.765625 216.457031 202.273438 Z M 216.457031 202.273438 "/>
<path style="fill:none;stroke-width:1;stroke-linecap:round;stroke-linejoin:round;stroke:rgb(0%,0%,0%);stroke-opacity:1;stroke-miterlimit:10;" d="M 32.4125 195.496875 L 84.9375 195.496875 L 84.9375 221.996875 L 32.4125 221.996875 Z M 32.4125 195.496875 " transform="matrix(1.25,0,0,1.25,227.5,-58.75)"/>
<path style=" stroke:none;fill-rule:nonzero;fill:rgb(0%,0%,0%);fill-opacity:1;" d="M 279.046875 202.203125 L 279.046875 202.984375 L 283.792969 202.984375 L 283.792969 206.324219 C 283.792969 206.675781 283.617188 206.851562 283.246094 206.851562 C 282.601562 206.851562 281.996094 206.832031 281.429688 206.8125 L 281.644531 207.613281 L 283.578125 207.613281 C 284.261719 207.613281 284.613281 207.261719 284.613281 206.597656 L 284.613281 202.984375 L 288.890625 202.984375 L 288.890625 202.203125 L 284.613281 202.203125 L 284.613281 201.03125 C 285.765625 200.269531 286.761719 199.46875 287.660156 198.628906 L 287.660156 197.867188 L 280.238281 197.867188 L 280.238281 198.628906 L 286.546875 198.628906 C 285.6875 199.390625 284.75 200.054688 283.792969 200.601562 L 283.792969 202.203125 Z M 279.046875 202.203125 "/>
<path style=" stroke:none;fill-rule:nonzero;fill:rgb(0%,0%,0%);fill-opacity:1;" d="M 298.734375 207.632812 C 299.515625 207.632812 299.925781 207.261719 299.925781 206.519531 L 299.925781 197.847656 L 293.753906 197.847656 L 293.753906 198.609375 L 299.125 198.609375 L 299.125 206.285156 C 299.125 206.675781 298.929688 206.890625 298.558594 206.890625 L 297.230469 206.871094 L 297.425781 207.632812 Z M 294.007812 199.9375 L 294.007812 200.699219 L 298.34375 200.699219 L 298.34375 199.9375 Z M 294.417969 201.929688 L 294.417969 205.425781 L 297.894531 205.425781 L 297.894531 201.929688 Z M 297.132812 204.722656 L 295.199219 204.722656 L 295.199219 202.652344 L 297.132812 202.652344 Z M 291.410156 197.476562 L 290.863281 198.023438 C 291.664062 198.628906 292.308594 199.214844 292.796875 199.78125 L 293.34375 199.214844 C 292.816406 198.628906 292.171875 198.0625 291.410156 197.476562 Z M 290.082031 200.816406 L 290.082031 201.578125 L 291.722656 201.578125 L 291.722656 206.070312 C 291.722656 206.246094 291.625 206.402344 291.46875 206.539062 L 291.78125 207.261719 C 292.484375 206.773438 293.148438 206.207031 293.773438 205.5625 L 293.558594 204.683594 C 293.167969 205.09375 292.816406 205.425781 292.503906 205.738281 L 292.503906 200.816406 Z M 290.082031 200.816406 "/>
<path style=" stroke:none;fill-rule:nonzero;fill:rgb(0%,0%,0%);fill-opacity:1;" d="M 301.585938 201.421875 L 301.585938 202.144531 L 302.445312 202.144531 L 302.445312 207.574219 L 303.226562 207.574219 L 303.226562 206.96875 L 305.746094 206.96875 L 305.746094 202.144531 L 306.585938 202.144531 L 306.585938 201.421875 L 305.746094 201.421875 L 305.746094 200.308594 L 304.964844 200.308594 L 304.964844 201.421875 L 303.226562 201.421875 L 303.226562 200.289062 L 302.445312 200.289062 L 302.445312 201.421875 Z M 303.226562 206.226562 L 303.226562 204.507812 L 304.964844 204.507812 L 304.964844 206.226562 Z M 304.964844 203.785156 L 303.226562 203.785156 L 303.226562 202.144531 L 304.964844 202.144531 Z M 306.078125 197.417969 L 306.078125 199 L 303.148438 199 L 303.148438 197.789062 L 302.328125 197.789062 L 302.328125 199.722656 L 310.570312 199.722656 L 310.570312 197.769531 L 309.75 197.769531 L 309.75 199 L 306.898438 199 L 306.898438 197.417969 Z M 307.582031 200.035156 C 307.40625 201.519531 306.976562 202.691406 306.332031 203.511719 L 306.957031 203.941406 C 307.367188 203.433594 307.699219 202.769531 307.933594 201.96875 L 310.316406 201.96875 C 310.179688 202.59375 309.984375 203.160156 309.769531 203.667969 L 310.472656 203.863281 C 310.726562 203.179688 310.941406 202.457031 311.117188 201.734375 L 311.117188 201.246094 L 308.128906 201.246094 C 308.207031 200.914062 308.285156 200.542969 308.34375 200.152344 Z M 308.402344 202.535156 C 308.402344 203.570312 308.285156 204.429688 308.050781 205.09375 C 307.738281 205.875 307.09375 206.539062 306.117188 207.066406 L 306.605469 207.691406 C 307.738281 207.046875 308.480469 206.246094 308.792969 205.269531 L 308.8125 205.191406 C 309.339844 206.1875 310.140625 207.027344 311.175781 207.691406 L 311.683594 207.085938 C 310.433594 206.363281 309.554688 205.386719 309.027344 204.15625 C 309.105469 203.648438 309.144531 203.121094 309.144531 202.535156 Z M 308.402344 202.535156 "/>
<path style=" stroke:none;fill-rule:nonzero;fill:rgb(0%,0%,0%);fill-opacity:1;" d="M 317.230469 199.976562 C 316.507812 202.964844 314.945312 205.269531 312.523438 206.832031 L 313.011719 207.535156 C 315.375 205.992188 316.9375 203.785156 317.679688 200.914062 C 317.738281 201.050781 317.777344 201.207031 317.855469 201.402344 C 319.007812 204.371094 320.492188 206.421875 322.328125 207.515625 L 322.835938 206.871094 C 321.039062 205.757812 319.632812 203.84375 318.578125 201.167969 C 317.894531 199.332031 317.035156 198.0625 316.039062 197.359375 L 315.375 197.789062 C 316.078125 198.316406 316.703125 199.039062 317.230469 199.976562 Z M 317.230469 199.976562 "/>
<path style="fill:none;stroke-width:1;stroke-linecap:round;stroke-linejoin:round;stroke:rgb(0%,0%,0%);stroke-opacity:1;stroke-miterlimit:10;" d="M 108.35625 195.496875 L 160.88125 195.496875 L 160.88125 221.996875 L 108.35625 221.996875 Z M 108.35625 195.496875 " transform="matrix(1.25,0,0,1.25,227.5,-58.75)"/>
<path style=" stroke:none;fill-rule:nonzero;fill:rgb(0%,0%,0%);fill-opacity:1;" d="M 381.695312 205.75 L 381.695312 197.703125 L 384.722656 197.703125 C 385.332031 197.703125 385.820312 197.792969 386.1875 197.957031 C 386.5625 198.113281 386.855469 198.363281 387.066406 198.699219 C 387.285156 199.042969 387.398438 199.394531 387.398438 199.753906 C 387.398438 200.105469 387.300781 200.433594 387.105469 200.730469 C 386.917969 201.035156 386.640625 201.277344 386.265625 201.472656 C 386.742188 201.621094 387.113281 201.859375 387.378906 202.195312 C 387.652344 202.539062 387.789062 202.9375 387.789062 203.40625 C 387.789062 203.789062 387.699219 204.140625 387.535156 204.460938 C 387.378906 204.789062 387.183594 205.042969 386.949219 205.222656 C 386.714844 205.394531 386.421875 205.527344 386.070312 205.613281 C 385.71875 205.707031 385.277344 205.75 384.761719 205.75 Z M 382.769531 201.082031 L 384.507812 201.082031 C 384.976562 201.082031 385.3125 201.054688 385.523438 200.984375 C 385.796875 200.90625 385.996094 200.78125 386.128906 200.59375 C 386.269531 200.398438 386.34375 200.164062 386.34375 199.890625 C 386.34375 199.617188 386.273438 199.382812 386.148438 199.1875 C 386.015625 198.984375 385.835938 198.835938 385.601562 198.757812 C 385.367188 198.679688 384.957031 198.640625 384.371094 198.640625 L 382.769531 198.640625 Z M 382.769531 204.792969 L 384.761719 204.792969 C 385.113281 204.792969 385.355469 204.785156 385.503906 204.753906 C 385.738281 204.714844 385.9375 204.648438 386.109375 204.539062 C 386.273438 204.4375 386.410156 204.285156 386.519531 204.089844 C 386.621094 203.894531 386.675781 203.671875 386.675781 203.40625 C 386.675781 203.109375 386.597656 202.851562 386.441406 202.625 C 386.285156 202.40625 386.070312 202.253906 385.796875 202.175781 C 385.523438 202.089844 385.132812 202.039062 384.625 202.039062 L 382.769531 202.039062 Z M 382.769531 204.792969 "/>
<path style=" stroke:none;fill-rule:nonzero;fill:rgb(0%,0%,0%);fill-opacity:1;" d="M 389.277344 205.75 L 389.277344 197.703125 L 395.097656 197.703125 L 395.097656 198.640625 L 390.332031 198.640625 L 390.332031 201.121094 L 394.785156 201.121094 L 394.785156 202.058594 L 390.332031 202.058594 L 390.332031 204.792969 L 395.273438 204.792969 L 395.273438 205.75 Z M 389.277344 205.75 "/>
<path style=" stroke:none;fill-rule:nonzero;fill:rgb(0%,0%,0%);fill-opacity:1;" d="M 396.761719 205.75 L 396.761719 197.703125 L 400.335938 197.703125 C 401.046875 197.703125 401.59375 197.777344 401.976562 197.917969 C 402.351562 198.066406 402.648438 198.320312 402.875 198.679688 C 403.09375 199.046875 403.207031 199.453125 403.207031 199.890625 C 403.207031 200.46875 403.015625 200.945312 402.640625 201.335938 C 402.273438 201.726562 401.707031 201.976562 400.941406 202.078125 C 401.214844 202.226562 401.429688 202.363281 401.585938 202.488281 C 401.898438 202.777344 402.191406 203.132812 402.464844 203.5625 L 403.871094 205.75 L 402.523438 205.75 L 401.449219 204.070312 C 401.144531 203.59375 400.890625 203.226562 400.6875 202.976562 C 400.492188 202.71875 400.304688 202.539062 400.140625 202.429688 C 399.984375 202.328125 399.828125 202.253906 399.671875 202.214844 C 399.539062 202.191406 399.339844 202.175781 399.066406 202.175781 L 397.835938 202.175781 L 397.835938 205.75 Z M 397.835938 201.257812 L 400.121094 201.257812 C 400.613281 201.257812 401 201.210938 401.273438 201.101562 C 401.546875 201 401.75 200.839844 401.898438 200.613281 C 402.039062 200.394531 402.113281 200.15625 402.113281 199.890625 C 402.113281 199.515625 401.964844 199.203125 401.683594 198.953125 C 401.410156 198.710938 400.96875 198.582031 400.375 198.582031 L 397.835938 198.582031 Z M 397.835938 201.257812 "/>
<path style=" stroke:none;fill-rule:nonzero;fill:rgb(0%,0%,0%);fill-opacity:1;" d="M 406.710938 205.75 L 406.710938 198.640625 L 404.074219 198.640625 L 404.074219 197.703125 L 410.441406 197.703125 L 410.441406 198.640625 L 407.785156 198.640625 L 407.785156 205.75 Z M 406.710938 205.75 "/>
<path style=" stroke:none;fill-rule:nonzero;fill:rgb(0%,0%,0%);fill-opacity:1;" d="M 18.9375 111.777344 L 18.9375 115.664062 L 22.570312 115.664062 L 22.570312 111.777344 Z M 21.789062 114.941406 L 19.71875 114.941406 L 19.71875 112.519531 L 21.789062 112.519531 Z M 14.992188 110.996094 L 14.992188 112.011719 L 13.292969 112.011719 L 13.292969 112.714844 L 14.933594 112.714844 C 14.738281 114.042969 14.113281 115.039062 13.019531 115.722656 L 13.625 116.25 C 14.816406 115.46875 15.519531 114.277344 15.714844 112.714844 L 17.179688 112.714844 C 17.160156 113.886719 17.101562 114.628906 17.003906 114.882812 C 16.90625 115.175781 16.632812 115.3125 16.242188 115.332031 L 15.597656 115.273438 L 15.792969 115.996094 C 16.046875 116.035156 16.242188 116.054688 16.417969 116.054688 C 16.984375 116.054688 17.375 115.859375 17.628906 115.46875 C 17.84375 115.097656 17.960938 113.945312 17.960938 112.011719 L 15.773438 112.011719 L 15.773438 110.996094 Z M 13.253906 117.03125 L 13.253906 117.8125 L 16.984375 117.8125 C 16.164062 118.769531 14.875 119.589844 13.117188 120.214844 L 13.566406 120.957031 C 15.460938 120.136719 16.847656 119.082031 17.667969 117.8125 L 17.726562 117.8125 L 17.726562 121.25 L 18.546875 121.25 L 18.546875 117.8125 L 18.605469 117.8125 C 19.367188 118.945312 20.695312 120 22.609375 120.9375 L 23.15625 120.253906 C 21.359375 119.53125 20.050781 118.710938 19.289062 117.8125 L 23.039062 117.8125 L 23.039062 117.03125 L 18.546875 117.03125 L 18.546875 116.132812 L 17.726562 116.132812 L 17.726562 117.03125 Z M 13.253906 117.03125 "/>
<path style=" stroke:none;fill-rule:nonzero;fill:rgb(0%,0%,0%);fill-opacity:1;" d="M 29.660156 110.957031 C 29.40625 112.558594 28.917969 113.90625 28.234375 115 L 28.742188 115.683594 C 29.191406 115 29.582031 114.21875 29.894531 113.359375 L 33.3125 113.359375 C 33.292969 116.855469 33.253906 118.925781 33.136719 119.570312 C 33.039062 120.15625 32.707031 120.46875 32.179688 120.46875 C 31.808594 120.46875 31.398438 120.429688 30.910156 120.410156 L 31.085938 121.152344 C 31.652344 121.171875 32.0625 121.171875 32.296875 121.171875 C 33.234375 121.171875 33.761719 120.722656 33.898438 119.804688 C 34.015625 118.90625 34.074219 116.503906 34.074219 112.617188 L 30.128906 112.617188 C 30.265625 112.109375 30.382812 111.601562 30.460938 111.054688 Z M 28.742188 118.847656 C 29.855469 118.632812 30.832031 118.398438 31.691406 118.164062 C 31.789062 118.476562 31.886719 118.808594 31.984375 119.179688 L 32.6875 118.867188 C 32.394531 117.851562 32.0625 116.914062 31.691406 116.035156 L 31.007812 116.269531 C 31.164062 116.660156 31.339844 117.089844 31.496094 117.558594 C 30.949219 117.695312 30.324219 117.832031 29.660156 117.96875 C 29.992188 117.363281 30.421875 116.328125 30.96875 114.824219 L 30.265625 114.570312 C 29.464844 116.816406 28.917969 118.027344 28.605469 118.183594 Z M 26.828125 115.546875 C 27.140625 115.957031 27.53125 116.484375 27.960938 117.148438 L 28.410156 116.445312 C 27.882812 115.800781 27.355469 115.195312 26.828125 114.648438 L 26.828125 113.945312 L 28.214844 113.945312 L 28.214844 113.164062 L 26.828125 113.164062 L 26.828125 110.976562 L 26.027344 110.976562 L 26.027344 113.164062 L 24.40625 113.164062 L 24.40625 113.945312 L 25.96875 113.945312 C 25.617188 115.371094 25.03125 116.640625 24.171875 117.753906 L 24.523438 118.632812 C 25.148438 117.695312 25.65625 116.660156 26.027344 115.507812 L 26.027344 121.230469 L 26.828125 121.230469 Z M 26.828125 115.546875 "/>
<path style=" stroke:none;fill-rule:nonzero;fill:rgb(69.803922%,85.098039%,100%);fill-opacity:1;" d="M 364.183594 132.65625 L 436.710938 132.65625 L 436.710938 98.90625 L 364.183594 98.90625 Z M 364.183594 132.65625 "/>
<path style="fill:none;stroke-width:1;stroke-linecap:round;stroke-linejoin:round;stroke:rgb(0%,0%,0%);stroke-opacity:1;stroke-miterlimit:10;" d="M 109.346875 126.125 L 167.36875 126.125 L 167.36875 153.125 L 109.346875 153.125 Z M 109.346875 126.125 " transform="matrix(1.25,0,0,1.25,227.5,-58.75)"/>
<path style=" stroke:none;fill-rule:nonzero;fill:rgb(0%,0%,0%);fill-opacity:1;" d="M 378.222656 119.347656 L 381.328125 111.300781 L 382.460938 111.300781 L 385.761719 119.347656 L 384.550781 119.347656 L 383.613281 116.90625 L 380.234375 116.90625 L 379.355469 119.347656 Z M 380.546875 116.046875 L 383.28125 116.046875 L 382.441406 113.800781 C 382.175781 113.125 381.992188 112.570312 381.875 112.140625 C 381.765625 112.660156 381.621094 113.175781 381.425781 113.683594 Z M 380.546875 116.046875 "/>
<path style=" stroke:none;fill-rule:nonzero;fill:rgb(0%,0%,0%);fill-opacity:1;" d="M 388.65625 118.46875 L 388.792969 119.328125 C 388.503906 119.390625 388.253906 119.425781 388.050781 119.425781 C 387.683594 119.425781 387.40625 119.367188 387.210938 119.25 C 387.015625 119.132812 386.867188 118.984375 386.78125 118.800781 C 386.703125 118.617188 386.664062 118.234375 386.664062 117.648438 L 386.664062 114.289062 L 385.941406 114.289062 L 385.941406 113.507812 L 386.664062 113.507812 L 386.664062 112.0625 L 387.660156 111.476562 L 387.660156 113.507812 L 388.65625 113.507812 L 388.65625 114.289062 L 387.660156 114.289062 L 387.660156 117.6875 C 387.660156 117.972656 387.667969 118.15625 387.699219 118.234375 C 387.738281 118.3125 387.796875 118.378906 387.875 118.429688 C 387.953125 118.480469 388.058594 118.507812 388.207031 118.507812 C 388.324219 118.507812 388.46875 118.496094 388.65625 118.46875 Z M 388.65625 118.46875 "/>
<path style=" stroke:none;fill-rule:nonzero;fill:rgb(0%,0%,0%);fill-opacity:1;" d="M 391.78125 118.46875 L 391.917969 119.328125 C 391.628906 119.390625 391.378906 119.425781 391.175781 119.425781 C 390.808594 119.425781 390.53125 119.367188 390.335938 119.25 C 390.140625 119.132812 389.992188 118.984375 389.90625 118.800781 C 389.828125 118.617188 389.789062 118.234375 389.789062 117.648438 L 389.789062 114.289062 L 389.066406 114.289062 L 389.066406 113.507812 L 389.789062 113.507812 L 389.789062 112.0625 L 390.785156 111.476562 L 390.785156 113.507812 L 391.78125 113.507812 L 391.78125 114.289062 L 390.785156 114.289062 L 390.785156 117.6875 C 390.785156 117.972656 390.792969 118.15625 390.824219 118.234375 C 390.863281 118.3125 390.921875 118.378906 391 118.429688 C 391.078125 118.480469 391.183594 118.507812 391.332031 118.507812 C 391.449219 118.507812 391.59375 118.496094 391.78125 118.46875 Z M 391.78125 118.46875 "/>
<path style=" stroke:none;fill-rule:nonzero;fill:rgb(0%,0%,0%);fill-opacity:1;" d="M 396.722656 117.472656 L 397.757812 117.589844 C 397.585938 118.1875 397.28125 118.65625 396.839844 118.996094 C 396.410156 119.320312 395.855469 119.484375 395.179688 119.484375 C 394.332031 119.484375 393.65625 119.222656 393.148438 118.703125 C 392.652344 118.167969 392.40625 117.425781 392.40625 116.476562 C 392.40625 115.5 392.660156 114.746094 393.167969 114.210938 C 393.675781 113.664062 394.332031 113.390625 395.140625 113.390625 C 395.921875 113.390625 396.550781 113.65625 397.035156 114.191406 C 397.527344 114.710938 397.777344 115.453125 397.777344 116.417969 C 397.777344 116.484375 397.777344 116.574219 397.777344 116.691406 L 393.421875 116.691406 C 393.460938 117.328125 393.640625 117.816406 393.96875 118.15625 C 394.292969 118.496094 394.703125 118.664062 395.199219 118.664062 C 395.5625 118.664062 395.867188 118.574219 396.117188 118.390625 C 396.375 118.195312 396.578125 117.890625 396.722656 117.472656 Z M 393.480469 115.871094 L 396.742188 115.871094 C 396.703125 115.375 396.578125 115.003906 396.371094 114.757812 C 396.058594 114.378906 395.648438 114.191406 395.140625 114.191406 C 394.683594 114.191406 394.300781 114.347656 393.988281 114.660156 C 393.6875 114.960938 393.519531 115.363281 393.480469 115.871094 Z M 393.480469 115.871094 "/>
<path style=" stroke:none;fill-rule:nonzero;fill:rgb(0%,0%,0%);fill-opacity:1;" d="M 398.996094 119.347656 L 398.996094 113.507812 L 399.894531 113.507812 L 399.894531 114.347656 C 400.308594 113.710938 400.929688 113.390625 401.75 113.390625 C 402.101562 113.390625 402.417969 113.457031 402.707031 113.585938 C 403.003906 113.703125 403.222656 113.867188 403.371094 114.074219 C 403.511719 114.269531 403.613281 114.511719 403.683594 114.796875 C 403.722656 114.980469 403.742188 115.296875 403.742188 115.753906 L 403.742188 119.347656 L 402.746094 119.347656 L 402.746094 115.792969 C 402.746094 115.390625 402.707031 115.089844 402.628906 114.894531 C 402.550781 114.699219 402.414062 114.542969 402.21875 114.425781 C 402.023438 114.296875 401.792969 114.230469 401.535156 114.230469 C 401.113281 114.230469 400.753906 114.367188 400.441406 114.640625 C 400.136719 114.902344 399.992188 115.410156 399.992188 116.164062 L 399.992188 119.347656 Z M 398.996094 119.347656 "/>
<path style=" stroke:none;fill-rule:nonzero;fill:rgb(0%,0%,0%);fill-opacity:1;" d="M 407.421875 118.46875 L 407.558594 119.328125 C 407.269531 119.390625 407.019531 119.425781 406.816406 119.425781 C 406.449219 119.425781 406.171875 119.367188 405.976562 119.25 C 405.78125 119.132812 405.632812 118.984375 405.546875 118.800781 C 405.46875 118.617188 405.429688 118.234375 405.429688 117.648438 L 405.429688 114.289062 L 404.707031 114.289062 L 404.707031 113.507812 L 405.429688 113.507812 L 405.429688 112.0625 L 406.425781 111.476562 L 406.425781 113.507812 L 407.421875 113.507812 L 407.421875 114.289062 L 406.425781 114.289062 L 406.425781 117.6875 C 406.425781 117.972656 406.433594 118.15625 406.464844 118.234375 C 406.503906 118.3125 406.5625 118.378906 406.640625 118.429688 C 406.71875 118.480469 406.824219 118.507812 406.972656 118.507812 C 407.089844 118.507812 407.234375 118.496094 407.421875 118.46875 Z M 407.421875 118.46875 "/>
<path style=" stroke:none;fill-rule:nonzero;fill:rgb(0%,0%,0%);fill-opacity:1;" d="M 408.378906 112.433594 L 408.378906 111.300781 L 409.375 111.300781 L 409.375 112.433594 Z M 408.378906 119.347656 L 408.378906 113.507812 L 409.375 113.507812 L 409.375 119.347656 Z M 408.378906 119.347656 "/>
<path style=" stroke:none;fill-rule:nonzero;fill:rgb(0%,0%,0%);fill-opacity:1;" d="M 410.507812 116.4375 C 410.507812 115.355469 410.804688 114.554688 411.40625 114.035156 C 411.914062 113.605469 412.523438 113.390625 413.242188 113.390625 C 414.046875 113.390625 414.707031 113.652344 415.214844 114.171875 C 415.722656 114.691406 415.976562 115.414062 415.976562 116.339844 C 415.976562 117.09375 415.859375 117.6875 415.625 118.117188 C 415.398438 118.546875 415.078125 118.886719 414.648438 119.132812 C 414.21875 119.367188 413.75 119.484375 413.242188 119.484375 C 412.421875 119.484375 411.757812 119.222656 411.25 118.703125 C 410.75 118.167969 410.507812 117.414062 410.507812 116.4375 Z M 411.523438 116.4375 C 411.523438 117.179688 411.683594 117.738281 412.011719 118.117188 C 412.332031 118.480469 412.742188 118.664062 413.242188 118.664062 C 413.734375 118.664062 414.144531 118.480469 414.472656 118.117188 C 414.792969 117.738281 414.960938 117.167969 414.960938 116.398438 C 414.960938 115.683594 414.792969 115.136719 414.472656 114.757812 C 414.144531 114.378906 413.734375 114.191406 413.242188 114.191406 C 412.742188 114.191406 412.332031 114.378906 412.011719 114.757812 C 411.683594 115.121094 411.523438 115.683594 411.523438 116.4375 Z M 411.523438 116.4375 "/>
<path style=" stroke:none;fill-rule:nonzero;fill:rgb(0%,0%,0%);fill-opacity:1;" d="M 417.136719 119.347656 L 417.136719 113.507812 L 418.035156 113.507812 L 418.035156 114.347656 C 418.449219 113.710938 419.070312 113.390625 419.890625 113.390625 C 420.242188 113.390625 420.558594 113.457031 420.847656 113.585938 C 421.144531 113.703125 421.363281 113.867188 421.511719 114.074219 C 421.652344 114.269531 421.753906 114.511719 421.824219 114.796875 C 421.863281 114.980469 421.882812 115.296875 421.882812 115.753906 L 421.882812 119.347656 L 420.886719 119.347656 L 420.886719 115.792969 C 420.886719 115.390625 420.847656 115.089844 420.769531 114.894531 C 420.691406 114.699219 420.554688 114.542969 420.359375 114.425781 C 420.164062 114.296875 419.933594 114.230469 419.675781 114.230469 C 419.253906 114.230469 418.894531 114.367188 418.582031 114.640625 C 418.277344 114.902344 418.132812 115.410156 418.132812 116.164062 L 418.132812 119.347656 Z M 417.136719 119.347656 "/>
<path style=" stroke:none;fill-rule:nonzero;fill:rgb(69.803922%,85.098039%,100%);fill-opacity:1;" d="M 71.289062 132.65625 L 143.8125 132.65625 L 143.8125 98.90625 L 71.289062 98.90625 Z M 71.289062 132.65625 "/>
<path style="fill:none;stroke-width:1;stroke-linecap:round;stroke-linejoin:round;stroke:rgb(0%,0%,0%);stroke-opacity:1;stroke-miterlimit:10;" d="M -124.96875 126.125 L -66.95 126.125 L -66.95 153.125 L -124.96875 153.125 Z M -124.96875 126.125 " transform="matrix(1.25,0,0,1.25,227.5,-58.75)"/>
<path style=" stroke:none;fill-rule:nonzero;fill:rgb(0%,0%,0%);fill-opacity:1;" d="M 96.824219 119.347656 L 96.824219 111.300781 L 98.425781 111.300781 L 100.320312 117.003906 C 100.503906 117.523438 100.632812 117.921875 100.710938 118.195312 C 100.800781 117.894531 100.945312 117.464844 101.140625 116.90625 L 103.074219 111.300781 L 104.5 111.300781 L 104.5 119.347656 L 103.484375 119.347656 L 103.484375 112.609375 L 101.140625 119.347656 L 100.183594 119.347656 L 97.839844 112.492188 L 97.839844 119.347656 Z M 96.824219 119.347656 "/>
<path style=" stroke:none;fill-rule:nonzero;fill:rgb(0%,0%,0%);fill-opacity:1;" d="M 106.175781 119.347656 L 106.175781 111.300781 L 107.25 111.300781 L 107.25 118.390625 L 111.214844 118.390625 L 111.214844 119.347656 Z M 106.175781 119.347656 "/>
<path style=" stroke:none;fill-rule:nonzero;fill:rgb(0%,0%,0%);fill-opacity:1;" d="M 112.472656 119.347656 L 112.472656 111.300781 L 115.519531 111.300781 C 116.054688 111.300781 116.464844 111.328125 116.75 111.378906 C 117.140625 111.445312 117.464844 111.566406 117.726562 111.75 C 118 111.933594 118.214844 112.191406 118.371094 112.53125 C 118.539062 112.855469 118.625 113.222656 118.625 113.625 C 118.625 114.316406 118.402344 114.894531 117.960938 115.363281 C 117.53125 115.832031 116.75 116.066406 115.617188 116.066406 L 113.546875 116.066406 L 113.546875 119.347656 Z M 113.546875 115.128906 L 115.636719 115.128906 C 116.3125 115.128906 116.796875 115 117.082031 114.738281 C 117.382812 114.476562 117.53125 114.121094 117.53125 113.664062 C 117.53125 113.324219 117.445312 113.039062 117.277344 112.804688 C 117.109375 112.558594 116.878906 112.394531 116.59375 112.316406 C 116.425781 112.265625 116.09375 112.238281 115.597656 112.238281 L 113.546875 112.238281 Z M 113.546875 115.128906 "/>
<path style=" stroke:none;fill-rule:nonzero;fill:rgb(69.803922%,85.098039%,100%);fill-opacity:1;" d="M 266.554688 132.65625 L 339.078125 132.65625 L 339.078125 98.90625 L 266.554688 98.90625 Z M 266.554688 132.65625 "/>
<path style="fill:none;stroke-width:1;stroke-linecap:round;stroke-linejoin:round;stroke:rgb(0%,0%,0%);stroke-opacity:1;stroke-miterlimit:10;" d="M 31.24375 126.125 L 89.2625 126.125 L 89.2625 153.125 L 31.24375 153.125 Z M 31.24375 126.125 " transform="matrix(1.25,0,0,1.25,227.5,-58.75)"/>
<path style=" stroke:none;fill-rule:nonzero;fill:rgb(0%,0%,0%);fill-opacity:1;" d="M 291.507812 119.347656 L 291.507812 111.300781 L 295.082031 111.300781 C 295.792969 111.300781 296.339844 111.371094 296.722656 111.515625 C 297.097656 111.660156 297.394531 111.914062 297.621094 112.277344 C 297.839844 112.640625 297.953125 113.046875 297.953125 113.488281 C 297.953125 114.0625 297.761719 114.542969 297.386719 114.933594 C 297.019531 115.324219 296.453125 115.570312 295.6875 115.675781 C 295.960938 115.820312 296.175781 115.957031 296.332031 116.085938 C 296.644531 116.371094 296.9375 116.730469 297.210938 117.160156 L 298.617188 119.347656 L 297.269531 119.347656 L 296.195312 117.667969 C 295.890625 117.1875 295.636719 116.820312 295.433594 116.574219 C 295.238281 116.3125 295.050781 116.132812 294.886719 116.027344 C 294.730469 115.921875 294.574219 115.851562 294.417969 115.8125 C 294.285156 115.785156 294.085938 115.773438 293.8125 115.773438 L 292.582031 115.773438 L 292.582031 119.347656 Z M 292.582031 114.855469 L 294.867188 114.855469 C 295.359375 114.855469 295.746094 114.804688 296.019531 114.699219 C 296.292969 114.59375 296.496094 114.433594 296.644531 114.210938 C 296.785156 113.988281 296.859375 113.75 296.859375 113.488281 C 296.859375 113.109375 296.710938 112.796875 296.429688 112.550781 C 296.15625 112.304688 295.714844 112.179688 295.121094 112.179688 L 292.582031 112.179688 Z M 292.582031 114.855469 "/>
<path style=" stroke:none;fill-rule:nonzero;fill:rgb(0%,0%,0%);fill-opacity:1;" d="M 299.613281 119.347656 L 299.613281 111.300781 L 300.707031 111.300781 L 304.925781 117.609375 L 304.925781 111.300781 L 305.960938 111.300781 L 305.960938 119.347656 L 304.867188 119.347656 L 300.628906 113.019531 L 300.628906 119.347656 Z M 299.613281 119.347656 "/>
<path style=" stroke:none;fill-rule:nonzero;fill:rgb(0%,0%,0%);fill-opacity:1;" d="M 307.738281 119.347656 L 307.738281 111.300781 L 308.832031 111.300781 L 313.050781 117.609375 L 313.050781 111.300781 L 314.085938 111.300781 L 314.085938 119.347656 L 312.992188 119.347656 L 308.753906 113.019531 L 308.753906 119.347656 Z M 307.738281 119.347656 "/>
<path style=" stroke:none;fill-rule:nonzero;fill:rgb(0%,0%,0%);fill-opacity:1;" d="M 15.011719 33.613281 L 15.011719 34.394531 L 22.960938 34.394531 L 22.960938 33.613281 L 20.597656 33.613281 C 21.28125 31.933594 21.867188 30.019531 22.335938 27.890625 L 21.535156 27.675781 C 21.007812 30.039062 20.402344 32.011719 19.71875 33.613281 Z M 16.242188 28.222656 L 15.539062 28.457031 C 16.007812 29.765625 16.398438 31.132812 16.691406 32.539062 L 17.453125 32.363281 C 17.101562 30.800781 16.691406 29.414062 16.242188 28.222656 Z M 18.410156 27.421875 L 17.707031 27.65625 C 18.117188 29.003906 18.449219 30.410156 18.683594 31.875 L 19.464844 31.699219 C 19.152344 30.097656 18.800781 28.671875 18.410156 27.421875 Z M 18.429688 24.472656 L 17.53125 24.628906 C 17.765625 24.941406 17.960938 25.273438 18.15625 25.644531 L 13.976562 25.644531 L 13.976562 28.925781 C 13.957031 31.210938 13.605469 32.988281 12.980469 34.277344 L 13.644531 34.882812 C 14.386719 33.398438 14.757812 31.40625 14.816406 28.925781 L 14.816406 26.425781 L 23.136719 26.425781 L 23.136719 25.644531 L 19.035156 25.644531 C 18.839844 25.214844 18.644531 24.824219 18.429688 24.472656 Z M 18.429688 24.472656 "/>
<path style=" stroke:none;fill-rule:nonzero;fill:rgb(0%,0%,0%);fill-opacity:1;" d="M 26.164062 28.476562 L 29.015625 28.476562 L 29.015625 30.449219 L 26.164062 30.449219 Z M 26.105469 31.191406 L 29.015625 31.191406 L 29.015625 34.492188 L 29.855469 34.492188 L 29.855469 31.191406 L 32.902344 31.191406 L 32.902344 33.144531 C 32.902344 33.632812 32.6875 33.867188 32.296875 33.867188 C 31.90625 33.867188 31.496094 33.847656 31.046875 33.808594 L 31.261719 34.609375 L 32.550781 34.609375 C 33.332031 34.609375 33.722656 34.21875 33.722656 33.4375 L 33.722656 25 L 25.34375 25 L 25.34375 30.410156 C 25.324219 31.953125 24.953125 33.222656 24.230469 34.21875 L 24.855469 34.765625 C 25.578125 33.828125 25.988281 32.636719 26.105469 31.191406 Z M 32.902344 30.449219 L 29.855469 30.449219 L 29.855469 28.476562 L 32.902344 28.476562 Z M 32.902344 27.734375 L 29.855469 27.734375 L 29.855469 25.800781 L 32.902344 25.800781 Z M 29.015625 25.800781 L 29.015625 27.734375 L 26.164062 27.734375 L 26.164062 25.800781 Z M 29.015625 25.800781 "/>
<path style=" stroke:none;fill-rule:nonzero;fill:rgb(40%,74.901961%,100%);fill-opacity:1;" d="M 89.058594 46.25 L 226.558594 46.25 L 226.558594 12.5 L 89.058594 12.5 Z M 89.058594 46.25 "/>
<path style="fill:none;stroke-width:1;stroke-linecap:round;stroke-linejoin:round;stroke:rgb(0%,0%,0%);stroke-opacity:1;stroke-miterlimit:10;" d="M -110.753125 57 L -0.753125 57 L -0.753125 84 L -110.753125 84 Z M -110.753125 57 " transform="matrix(1.25,0,0,1.25,227.5,-58.75)"/>
<path style=" stroke:none;fill-rule:nonzero;fill:rgb(0%,0%,0%);fill-opacity:1;" d="M 140.933594 23.515625 L 144.507812 23.515625 L 144.507812 24.296875 L 140.933594 24.296875 Z M 144.507812 22.871094 L 140.933594 22.871094 L 140.933594 22.050781 L 144.507812 22.050781 Z M 140.933594 24.921875 L 144.507812 24.921875 L 144.507812 25.585938 C 144.507812 25.859375 144.371094 25.996094 144.097656 25.996094 L 143.257812 25.957031 L 143.472656 26.679688 L 144.351562 26.679688 C 144.957031 26.679688 145.269531 26.347656 145.269531 25.742188 L 145.269531 21.367188 L 140.171875 21.367188 L 140.171875 26.71875 L 140.933594 26.71875 Z M 142.359375 16.425781 L 142.359375 17.148438 L 139.703125 17.148438 L 139.703125 17.8125 L 142.359375 17.8125 L 142.359375 18.59375 L 140.09375 18.59375 L 140.09375 19.238281 L 142.359375 19.238281 L 142.359375 20 L 139.371094 20 L 139.371094 20.078125 C 139.195312 19.433594 138.980469 18.867188 138.746094 18.359375 L 138.160156 18.535156 C 138.453125 19.199219 138.6875 19.882812 138.863281 20.585938 L 139.371094 20.46875 L 139.371094 20.683594 L 146.089844 20.683594 L 146.089844 20 L 143.160156 20 L 143.160156 19.238281 L 145.40625 19.238281 L 145.40625 18.59375 L 143.160156 18.59375 L 143.160156 17.8125 L 145.777344 17.8125 L 145.777344 17.148438 L 143.160156 17.148438 L 143.160156 16.425781 Z M 136.089844 18.613281 C 136.070312 19.6875 135.953125 20.722656 135.71875 21.699219 L 136.34375 21.875 C 136.578125 20.859375 136.695312 19.785156 136.734375 18.652344 Z M 137.242188 16.464844 L 137.242188 26.699219 L 138.023438 26.699219 L 138.023438 16.464844 Z M 137.242188 16.464844 "/>
<path style=" stroke:none;fill-rule:nonzero;fill:rgb(0%,0%,0%);fill-opacity:1;" d="M 149.332031 19.082031 L 149.332031 19.746094 L 153.042969 19.746094 L 153.042969 19.082031 Z M 149.644531 20.46875 L 149.644531 22.773438 L 152.789062 22.773438 L 152.789062 20.46875 Z M 152.027344 22.128906 L 150.40625 22.128906 L 150.40625 21.09375 L 152.027344 21.09375 Z M 156.832031 17.441406 L 156.089844 17.441406 C 155.972656 17.070312 155.855469 16.738281 155.71875 16.445312 L 155.015625 16.5625 C 155.132812 16.835938 155.269531 17.128906 155.386719 17.441406 L 154.15625 17.441406 C 154.136719 17.109375 154.136719 16.757812 154.136719 16.386719 L 153.355469 16.386719 C 153.355469 16.757812 153.355469 17.109375 153.375 17.441406 L 148.023438 17.441406 L 148.023438 19.667969 C 148.003906 20.976562 147.691406 21.972656 147.066406 22.714844 L 147.691406 23.261719 C 148.394531 22.34375 148.785156 21.152344 148.824219 19.667969 L 148.824219 18.183594 L 153.414062 18.183594 C 153.472656 19.121094 153.570312 19.902344 153.765625 20.527344 C 153.902344 20.996094 154.058594 21.40625 154.234375 21.757812 C 153.863281 22.167969 153.472656 22.5 153.023438 22.773438 L 153.453125 23.398438 C 153.84375 23.144531 154.234375 22.832031 154.605469 22.441406 C 154.664062 22.5 154.722656 22.578125 154.800781 22.675781 C 155.210938 23.125 155.640625 23.359375 156.089844 23.359375 C 156.558594 23.359375 156.96875 22.753906 157.300781 21.582031 L 156.65625 21.191406 C 156.421875 22.128906 156.207031 22.597656 156.011719 22.597656 C 155.757812 22.597656 155.484375 22.402344 155.191406 22.011719 L 155.09375 21.835938 C 155.621094 21.132812 156.050781 20.234375 156.382812 19.121094 L 155.757812 18.789062 C 155.484375 19.667969 155.132812 20.429688 154.742188 21.074219 C 154.625 20.800781 154.527344 20.488281 154.449219 20.136719 C 154.3125 19.628906 154.234375 18.984375 154.195312 18.183594 L 156.832031 18.183594 Z M 148.375 23.476562 C 148.101562 24.375 147.691406 25.195312 147.125 25.9375 L 147.828125 26.386719 C 148.375 25.605469 148.804688 24.6875 149.117188 23.632812 Z M 153.648438 26.5625 C 154.078125 26.5625 154.371094 26.484375 154.585938 26.328125 C 154.800781 26.132812 154.957031 25.605469 155.015625 24.726562 L 154.253906 24.472656 C 154.214844 25.117188 154.117188 25.507812 154 25.644531 C 153.902344 25.742188 153.726562 25.800781 153.511719 25.800781 L 151.109375 25.800781 C 150.835938 25.800781 150.699219 25.644531 150.699219 25.332031 L 150.699219 23.359375 L 149.878906 23.359375 L 149.878906 25.507812 C 149.878906 26.210938 150.210938 26.5625 150.875 26.5625 Z M 155.777344 23.710938 L 155.132812 24.121094 C 155.777344 24.84375 156.285156 25.527344 156.675781 26.132812 L 157.320312 25.664062 C 156.96875 25.117188 156.460938 24.453125 155.777344 23.710938 Z M 152.183594 23.164062 L 151.578125 23.535156 C 152.085938 24.101562 152.496094 24.609375 152.789062 25.078125 L 153.394531 24.648438 C 153.121094 24.238281 152.710938 23.730469 152.183594 23.164062 Z M 152.183594 23.164062 "/>
<path style=" stroke:none;fill-rule:nonzero;fill:rgb(0%,0%,0%);fill-opacity:1;" d="M 161.871094 16.679688 C 161.421875 17.519531 160.933594 18.261719 160.386719 18.886719 C 159.761719 19.589844 159.078125 20.175781 158.296875 20.605469 L 158.746094 21.308594 C 159.683594 20.683594 160.425781 20.039062 160.992188 19.394531 C 161.519531 18.789062 162.046875 18.027344 162.574219 17.089844 Z M 162.242188 21.679688 C 162.007812 22.753906 161.65625 23.59375 161.1875 24.257812 C 160.660156 24.921875 159.859375 25.546875 158.824219 26.113281 L 159.351562 26.777344 C 160.503906 26.132812 161.363281 25.429688 161.929688 24.609375 C 162.417969 23.886719 162.789062 22.910156 163.0625 21.679688 L 165.855469 21.679688 C 165.816406 23.4375 165.679688 24.570312 165.484375 25.117188 C 165.289062 25.644531 164.898438 25.898438 164.292969 25.898438 C 163.707031 25.898438 163.082031 25.878906 162.4375 25.859375 L 162.652344 26.660156 L 164.703125 26.660156 C 165.269531 26.621094 165.679688 26.445312 165.914062 26.113281 C 166.1875 25.78125 166.363281 25.175781 166.480469 24.316406 C 166.578125 23.457031 166.65625 22.324219 166.675781 20.917969 L 159.976562 20.917969 L 159.976562 21.679688 Z M 165.035156 16.523438 L 164.351562 16.914062 C 165.035156 18.691406 166.246094 20.136719 167.984375 21.269531 L 168.53125 20.625 C 166.851562 19.628906 165.699219 18.261719 165.035156 16.523438 Z M 165.035156 16.523438 "/>
<path style=" stroke:none;fill-rule:nonzero;fill:rgb(0%,0%,0%);fill-opacity:1;" d="M 172.164062 20.859375 C 172.496094 21.289062 172.886719 21.835938 173.335938 22.539062 L 173.785156 21.894531 C 173.238281 21.191406 172.691406 20.566406 172.164062 20.019531 L 172.164062 19.414062 L 173.6875 19.414062 L 173.6875 18.632812 L 172.164062 18.632812 L 172.164062 16.425781 L 171.363281 16.425781 L 171.363281 18.632812 L 169.722656 18.632812 L 169.722656 19.414062 L 171.324219 19.414062 C 170.953125 20.839844 170.347656 22.109375 169.488281 23.203125 L 169.839844 24.082031 C 170.484375 23.144531 170.972656 22.109375 171.363281 20.976562 L 171.363281 26.71875 L 172.164062 26.71875 Z M 179.019531 16.484375 C 177.632812 16.992188 176.070312 17.285156 174.351562 17.324219 L 174.351562 20.9375 C 174.273438 23.125 173.765625 24.824219 172.847656 26.054688 L 173.414062 26.660156 C 174.488281 25.234375 175.054688 23.320312 175.132812 20.9375 L 175.132812 20.800781 L 177.222656 20.800781 L 177.222656 26.71875 L 178.023438 26.71875 L 178.023438 20.800781 L 179.703125 20.800781 L 179.703125 20.039062 L 175.132812 20.039062 L 175.132812 18.007812 C 176.714844 17.929688 178.140625 17.65625 179.410156 17.207031 Z M 179.019531 16.484375 "/>
<path style=" stroke:none;fill-rule:nonzero;fill:rgb(0%,0%,0%);fill-opacity:1;" d="M 139.253906 32.578125 C 138.746094 33.300781 138.375 34.0625 138.082031 34.882812 C 137.75 35.859375 137.59375 36.835938 137.59375 37.832031 C 137.59375 38.808594 137.75 39.785156 138.082031 40.761719 C 138.375 41.5625 138.746094 42.34375 139.253906 43.085938 L 140.035156 43.085938 C 139.585938 42.324219 139.214844 41.542969 138.960938 40.742188 C 138.628906 39.765625 138.472656 38.789062 138.472656 37.832031 C 138.472656 36.855469 138.628906 35.898438 138.960938 34.902344 C 139.214844 34.082031 139.585938 33.320312 140.035156 32.578125 Z M 139.253906 32.578125 "/>
<path style=" stroke:none;fill-rule:nonzero;fill:rgb(0%,0%,0%);fill-opacity:1;" d="M 142.632812 34.433594 L 142.632812 39.0625 L 146.148438 39.0625 L 146.148438 40.136719 L 141.558594 40.136719 L 141.558594 40.898438 L 146.148438 40.898438 L 146.148438 43.027344 L 146.96875 43.027344 L 146.96875 40.898438 L 151.558594 40.898438 L 151.558594 40.136719 L 146.96875 40.136719 L 146.96875 39.0625 L 150.484375 39.0625 L 150.484375 34.433594 L 148.316406 34.433594 C 148.667969 33.984375 148.960938 33.457031 149.234375 32.890625 L 148.453125 32.597656 C 148.160156 33.261719 147.847656 33.867188 147.476562 34.433594 Z M 149.703125 38.339844 L 146.96875 38.339844 L 146.96875 37.089844 L 149.703125 37.089844 Z M 146.148438 38.339844 L 143.414062 38.339844 L 143.414062 37.089844 L 146.148438 37.089844 Z M 143.414062 36.386719 L 143.414062 35.15625 L 146.148438 35.15625 L 146.148438 36.386719 Z M 146.96875 35.15625 L 149.703125 35.15625 L 149.703125 36.386719 L 146.96875 36.386719 Z M 144.625 32.65625 L 143.941406 32.988281 C 144.3125 33.417969 144.664062 33.886719 145.015625 34.433594 L 145.679688 34.082031 C 145.347656 33.574219 144.996094 33.085938 144.625 32.65625 Z M 144.625 32.65625 "/>
<path style=" stroke:none;fill-rule:nonzero;fill:rgb(0%,0%,0%);fill-opacity:1;" d="M 152.90625 34.589844 L 152.90625 35.390625 L 154.644531 35.390625 C 155.132812 37.128906 156.050781 38.632812 157.339844 39.921875 C 156.128906 41.015625 154.585938 41.816406 152.691406 42.324219 L 153.121094 43.027344 C 155.035156 42.480469 156.636719 41.621094 157.90625 40.429688 C 159.117188 41.484375 160.660156 42.34375 162.515625 43.046875 L 162.964844 42.363281 C 161.167969 41.699219 159.664062 40.878906 158.472656 39.863281 C 159.566406 38.671875 160.40625 37.167969 160.953125 35.390625 L 162.710938 35.390625 L 162.710938 34.589844 L 158.414062 34.589844 C 158.0625 33.808594 157.671875 33.144531 157.242188 32.597656 L 156.441406 32.890625 C 156.890625 33.417969 157.261719 33.984375 157.554688 34.589844 Z M 155.425781 35.390625 L 160.113281 35.390625 C 159.644531 36.953125 158.902344 38.261719 157.90625 39.355469 C 156.734375 38.222656 155.914062 36.914062 155.425781 35.390625 Z M 155.425781 35.390625 "/>
<path style=" stroke:none;fill-rule:nonzero;fill:rgb(0%,0%,0%);fill-opacity:1;" d="M 164.234375 34.746094 L 164.234375 35.527344 L 167.925781 35.527344 C 167.085938 37.519531 165.738281 39.160156 163.84375 40.410156 L 164.3125 41.171875 C 166.304688 39.6875 167.730469 37.8125 168.570312 35.527344 L 168.648438 35.527344 L 168.648438 39.921875 L 166.324219 39.921875 L 166.324219 40.703125 L 168.648438 40.703125 L 168.648438 43.007812 L 169.46875 43.007812 L 169.46875 40.703125 L 171.890625 40.703125 L 171.890625 39.921875 L 169.46875 39.921875 L 169.46875 35.527344 L 169.566406 35.527344 C 170.328125 37.558594 171.695312 39.394531 173.6875 41.015625 L 174.234375 40.332031 C 172.300781 38.925781 170.953125 37.324219 170.191406 35.527344 L 173.863281 35.527344 L 173.863281 34.746094 L 169.46875 34.746094 L 169.46875 32.714844 L 168.648438 32.714844 L 168.648438 34.746094 Z M 164.234375 34.746094 "/>
<path style=" stroke:none;fill-rule:nonzero;fill:rgb(0%,0%,0%);fill-opacity:1;" d="M 175.582031 32.578125 C 176.03125 33.320312 176.382812 34.082031 176.65625 34.902344 C 176.988281 35.898438 177.144531 36.855469 177.144531 37.832031 C 177.144531 38.789062 176.988281 39.765625 176.65625 40.742188 C 176.382812 41.542969 176.03125 42.324219 175.582031 43.085938 L 176.363281 43.085938 C 176.851562 42.34375 177.242188 41.5625 177.535156 40.761719 C 177.847656 39.785156 178.023438 38.808594 178.023438 37.832031 C 178.023438 36.835938 177.847656 35.859375 177.535156 34.882812 C 177.242188 34.0625 176.851562 33.300781 176.363281 32.578125 Z M 175.582031 32.578125 "/>
<path style=" stroke:none;fill-rule:nonzero;fill:rgb(40%,74.901961%,100%);fill-opacity:1;" d="M 242.808594 46.25 L 400.308594 46.25 L 400.308594 12.5 L 242.808594 12.5 Z M 242.808594 46.25 "/>
<path style="fill:none;stroke-width:1;stroke-linecap:round;stroke-linejoin:round;stroke:rgb(0%,0%,0%);stroke-opacity:1;stroke-miterlimit:10;" d="M 12.246875 57 L 138.246875 57 L 138.246875 84 L 12.246875 84 Z M 12.246875 57 " transform="matrix(1.25,0,0,1.25,227.5,-58.75)"/>
<path style=" stroke:none;fill-rule:nonzero;fill:rgb(0%,0%,0%);fill-opacity:1;" d="M 297.222656 17.773438 L 292.90625 17.773438 C 293.121094 17.382812 293.316406 16.953125 293.433594 16.503906 L 292.613281 16.40625 C 292.496094 16.875 292.300781 17.324219 292.066406 17.773438 L 289.644531 17.773438 L 289.644531 26.738281 L 290.484375 26.738281 L 290.484375 26.035156 L 296.382812 26.035156 L 296.382812 26.738281 L 297.222656 26.738281 Z M 290.484375 25.273438 L 290.484375 23.4375 L 296.382812 23.4375 L 296.382812 25.273438 Z M 290.484375 22.695312 L 290.484375 20.976562 L 296.382812 20.976562 L 296.382812 22.695312 Z M 290.484375 20.234375 L 290.484375 18.554688 L 296.382812 18.554688 L 296.382812 20.234375 Z M 290.484375 20.234375 "/>
<path style=" stroke:none;fill-rule:nonzero;fill:rgb(0%,0%,0%);fill-opacity:1;" d="M 308.238281 16.542969 L 307.671875 16.894531 C 308.179688 17.460938 308.570312 17.988281 308.863281 18.476562 L 309.46875 18.046875 C 309.175781 17.617188 308.765625 17.128906 308.238281 16.542969 Z M 306.382812 16.484375 L 306.382812 17.949219 C 306.382812 18.242188 306.363281 18.535156 306.34375 18.828125 L 304.742188 18.828125 L 304.742188 19.609375 L 306.226562 19.609375 C 306.109375 20.15625 305.972656 20.625 305.757812 21.054688 C 305.367188 21.816406 304.625 22.441406 303.589844 22.910156 L 304 23.554688 C 305.09375 23.085938 305.894531 22.421875 306.363281 21.582031 C 306.558594 21.210938 306.714844 20.78125 306.851562 20.3125 C 307.28125 21.660156 308.140625 22.773438 309.449219 23.59375 L 309.878906 22.910156 C 308.53125 22.109375 307.671875 21.015625 307.339844 19.609375 L 309.527344 19.609375 L 309.527344 18.828125 L 307.085938 18.828125 C 307.105469 18.554688 307.125 18.261719 307.144531 17.949219 L 307.144531 16.484375 Z M 301.167969 23.828125 C 300.875 24.921875 300.503906 25.820312 300.074219 26.542969 L 300.875 26.835938 C 301.285156 26.015625 301.617188 25.097656 301.890625 24.042969 Z M 303.746094 23.984375 L 303.003906 24.160156 C 303.160156 24.902344 303.277344 25.761719 303.375 26.757812 L 304.175781 26.5625 C 304.039062 25.644531 303.902344 24.785156 303.746094 23.984375 Z M 306.109375 23.867188 L 305.328125 24.023438 C 305.621094 24.804688 305.855469 25.703125 306.070312 26.738281 L 306.871094 26.542969 C 306.65625 25.585938 306.402344 24.6875 306.109375 23.867188 Z M 308.238281 23.652344 L 307.554688 23.964844 C 308.042969 24.785156 308.511719 25.683594 308.941406 26.699219 L 309.664062 26.347656 C 309.214844 25.371094 308.726562 24.472656 308.238281 23.652344 Z M 301.636719 19.21875 C 302.203125 19.394531 302.769531 19.648438 303.316406 19.941406 C 303.121094 20.273438 302.886719 20.605469 302.652344 20.917969 C 302.125 20.605469 301.578125 20.332031 300.972656 20.097656 C 301.207031 19.824219 301.441406 19.53125 301.636719 19.21875 Z M 303.609375 19.296875 C 303.101562 19.023438 302.554688 18.828125 301.988281 18.632812 C 302.125 18.398438 302.242188 18.125 302.359375 17.871094 L 304.117188 17.871094 C 303.980469 18.359375 303.824219 18.847656 303.609375 19.296875 Z M 302.632812 17.148438 C 302.691406 16.933594 302.769531 16.71875 302.828125 16.503906 L 302.046875 16.40625 C 301.597656 18.007812 300.757812 19.375 299.488281 20.488281 L 299.996094 21.132812 C 300.171875 20.976562 300.347656 20.78125 300.523438 20.605469 C 301.089844 20.820312 301.617188 21.113281 302.164062 21.464844 C 301.519531 22.109375 300.738281 22.636719 299.800781 23.046875 L 300.191406 23.75 C 302.671875 22.558594 304.273438 20.585938 304.9375 17.8125 L 304.9375 17.148438 Z M 302.632812 17.148438 "/>
<path style=" stroke:none;fill-rule:nonzero;fill:rgb(0%,0%,0%);fill-opacity:1;" d="M 314.625 16.894531 L 314.625 17.636719 L 316.832031 17.636719 L 316.558594 18.886719 L 314.878906 18.886719 L 314.878906 19.609375 L 316.402344 19.609375 L 316.070312 21.09375 L 314.332031 21.09375 L 314.332031 21.855469 L 321.128906 21.855469 L 321.128906 21.09375 L 320.054688 21.09375 L 320.054688 18.886719 L 317.359375 18.886719 L 317.632812 17.636719 L 320.777344 17.636719 L 320.777344 16.894531 Z M 316.890625 21.09375 L 317.203125 19.609375 L 319.253906 19.609375 L 319.253906 21.09375 Z M 320.386719 22.871094 L 315.171875 22.871094 L 315.171875 26.777344 L 315.972656 26.777344 L 315.972656 26.230469 L 319.585938 26.230469 L 319.585938 26.777344 L 320.386719 26.777344 Z M 315.972656 25.46875 L 315.972656 23.613281 L 319.585938 23.613281 L 319.585938 25.46875 Z M 312.183594 16.582031 L 311.617188 17.148438 C 312.398438 17.734375 313.003906 18.261719 313.453125 18.789062 L 314.019531 18.242188 C 313.511719 17.675781 312.886719 17.128906 312.183594 16.582031 Z M 310.777344 19.882812 L 310.777344 20.644531 L 312.4375 20.644531 L 312.4375 25.136719 C 312.4375 25.3125 312.339844 25.488281 312.183594 25.625 L 312.496094 26.347656 C 313.238281 25.839844 313.921875 25.273438 314.585938 24.609375 L 314.371094 23.75 C 313.960938 24.179688 313.570312 24.550781 313.21875 24.863281 L 313.21875 19.882812 Z M 310.777344 19.882812 "/>
<path style=" stroke:none;fill-rule:nonzero;fill:rgb(0%,0%,0%);fill-opacity:1;" d="M 322.144531 17.871094 L 322.144531 18.632812 L 332.242188 18.632812 L 332.242188 17.871094 L 327.320312 17.871094 L 327.769531 17.695312 C 327.632812 17.285156 327.4375 16.835938 327.203125 16.347656 L 326.34375 16.582031 C 326.578125 16.992188 326.792969 17.421875 326.96875 17.871094 Z M 323.589844 19.609375 L 323.589844 20.332031 L 330.777344 20.332031 L 330.777344 19.609375 Z M 323.589844 21.328125 L 323.589844 22.050781 L 330.777344 22.050781 L 330.777344 21.328125 Z M 330.972656 23.144531 L 323.394531 23.144531 L 323.394531 26.777344 L 324.195312 26.777344 L 324.195312 26.230469 L 330.171875 26.230469 L 330.171875 26.777344 L 330.972656 26.777344 Z M 324.195312 25.46875 L 324.195312 23.90625 L 330.171875 23.90625 L 330.171875 25.46875 Z M 324.195312 25.46875 "/>
<path style=" stroke:none;fill-rule:nonzero;fill:rgb(0%,0%,0%);fill-opacity:1;" d="M 338.570312 21.464844 L 340.5625 21.464844 L 340.5625 22.988281 L 338.570312 22.988281 Z M 338.570312 23.730469 L 340.5625 23.730469 L 340.5625 25.410156 L 338.570312 25.410156 Z M 338.570312 26.191406 L 343.453125 26.191406 L 343.453125 25.410156 L 341.363281 25.410156 L 341.363281 23.730469 L 343.101562 23.730469 L 343.101562 22.988281 L 341.363281 22.988281 L 341.363281 21.464844 L 343.101562 21.464844 L 343.101562 20.703125 L 341.363281 20.703125 L 341.363281 19.160156 L 343.335938 19.160156 L 343.335938 18.378906 L 341.1875 18.378906 L 341.480469 18.261719 C 341.34375 17.695312 341.128906 17.089844 340.855469 16.425781 L 340.09375 16.640625 C 340.347656 17.207031 340.5625 17.792969 340.757812 18.378906 L 338.707031 18.378906 C 338.960938 17.8125 339.175781 17.226562 339.351562 16.621094 L 338.550781 16.464844 C 338.179688 17.910156 337.535156 19.257812 336.617188 20.46875 L 336.890625 21.328125 C 337.203125 20.9375 337.496094 20.546875 337.769531 20.117188 L 337.769531 26.699219 L 338.570312 26.699219 Z M 340.5625 19.160156 L 340.5625 20.703125 L 338.570312 20.703125 L 338.570312 19.160156 Z M 336.734375 21.074219 C 336.402344 21.230469 336.050781 21.386719 335.679688 21.542969 L 335.679688 19.277344 L 336.832031 19.277344 L 336.832031 18.496094 L 335.679688 18.496094 L 335.679688 16.40625 L 334.859375 16.40625 L 334.859375 18.496094 L 333.433594 18.496094 L 333.433594 19.277344 L 334.859375 19.277344 L 334.859375 21.875 C 334.351562 22.050781 333.804688 22.207031 333.257812 22.324219 L 333.453125 23.144531 C 333.941406 23.007812 334.410156 22.851562 334.859375 22.695312 L 334.859375 25.390625 C 334.859375 25.683594 334.703125 25.839844 334.410156 25.839844 C 334.117188 25.839844 333.804688 25.820312 333.492188 25.78125 L 333.648438 26.5625 L 334.683594 26.5625 C 335.347656 26.5625 335.679688 26.25 335.679688 25.605469 L 335.679688 22.363281 C 336.050781 22.207031 336.402344 22.050781 336.734375 21.894531 Z M 336.734375 21.074219 "/>
<path style=" stroke:none;fill-rule:nonzero;fill:rgb(0%,0%,0%);fill-opacity:1;" d="M 344.898438 16.933594 L 344.898438 25.9375 L 349.410156 25.9375 L 349.410156 25.195312 L 345.601562 25.195312 L 345.601562 16.933594 Z M 346.089844 20.019531 L 346.089844 20.722656 L 347.730469 20.722656 C 347.359375 21.601562 346.734375 22.382812 345.875 23.066406 L 346.1875 23.867188 C 346.851562 23.222656 347.359375 22.5 347.769531 21.71875 L 347.769531 24.726562 L 348.511719 24.726562 L 348.511719 21.679688 C 348.824219 22.109375 349.214844 22.695312 349.664062 23.417969 L 350.09375 22.773438 C 349.566406 22.128906 349.019531 21.542969 348.511719 21.035156 L 348.511719 20.722656 L 349.996094 20.722656 L 349.996094 20.019531 L 348.511719 20.019531 L 348.511719 16.445312 L 347.769531 16.445312 L 347.769531 20.019531 Z M 349.371094 17.070312 C 349.3125 17.890625 349.175781 18.59375 348.921875 19.21875 L 349.546875 19.414062 C 349.800781 18.769531 349.976562 18.007812 350.035156 17.148438 Z M 346.714844 17.226562 L 346.070312 17.441406 C 346.304688 18.085938 346.519531 18.769531 346.675781 19.492188 L 347.300781 19.335938 C 347.125 18.535156 346.929688 17.832031 346.714844 17.226562 Z M 351.441406 20.683594 L 352.925781 20.683594 L 352.925781 26.757812 L 353.726562 26.757812 L 353.726562 20.683594 L 354.878906 20.683594 L 354.878906 19.902344 L 351.441406 19.902344 L 351.441406 17.871094 C 352.613281 17.8125 353.707031 17.578125 354.664062 17.148438 L 354.292969 16.484375 C 353.316406 16.933594 352.125 17.1875 350.71875 17.246094 L 350.71875 21.542969 C 350.679688 23.59375 350.328125 25.175781 349.664062 26.308594 L 350.367188 26.640625 C 351.050781 25.507812 351.421875 23.808594 351.441406 21.542969 Z M 351.441406 20.683594 "/>
<path style=" stroke:none;fill-rule:nonzero;fill:rgb(0%,0%,0%);fill-opacity:1;" d="M 303.003906 32.578125 C 302.496094 33.300781 302.125 34.0625 301.832031 34.882812 C 301.5 35.859375 301.34375 36.835938 301.34375 37.832031 C 301.34375 38.808594 301.5 39.785156 301.832031 40.761719 C 302.125 41.5625 302.496094 42.34375 303.003906 43.085938 L 303.785156 43.085938 C 303.335938 42.324219 302.964844 41.542969 302.710938 40.742188 C 302.378906 39.765625 302.222656 38.789062 302.222656 37.832031 C 302.222656 36.855469 302.378906 35.898438 302.710938 34.902344 C 302.964844 34.082031 303.335938 33.320312 303.785156 32.578125 Z M 303.003906 32.578125 "/>
<path style=" stroke:none;fill-rule:nonzero;fill:rgb(0%,0%,0%);fill-opacity:1;" d="M 305.40625 34.589844 L 305.40625 35.390625 L 307.144531 35.390625 C 307.632812 37.128906 308.550781 38.632812 309.839844 39.921875 C 308.628906 41.015625 307.085938 41.816406 305.191406 42.324219 L 305.621094 43.027344 C 307.535156 42.480469 309.136719 41.621094 310.40625 40.429688 C 311.617188 41.484375 313.160156 42.34375 315.015625 43.046875 L 315.464844 42.363281 C 313.667969 41.699219 312.164062 40.878906 310.972656 39.863281 C 312.066406 38.671875 312.90625 37.167969 313.453125 35.390625 L 315.210938 35.390625 L 315.210938 34.589844 L 310.914062 34.589844 C 310.5625 33.808594 310.171875 33.144531 309.742188 32.597656 L 308.941406 32.890625 C 309.390625 33.417969 309.761719 33.984375 310.054688 34.589844 Z M 307.925781 35.390625 L 312.613281 35.390625 C 312.144531 36.953125 311.402344 38.261719 310.40625 39.355469 C 309.234375 38.222656 308.414062 36.914062 307.925781 35.390625 Z M 307.925781 35.390625 "/>
<path style=" stroke:none;fill-rule:nonzero;fill:rgb(0%,0%,0%);fill-opacity:1;" d="M 316.734375 34.746094 L 316.734375 35.527344 L 320.425781 35.527344 C 319.585938 37.519531 318.238281 39.160156 316.34375 40.410156 L 316.8125 41.171875 C 318.804688 39.6875 320.230469 37.8125 321.070312 35.527344 L 321.148438 35.527344 L 321.148438 39.921875 L 318.824219 39.921875 L 318.824219 40.703125 L 321.148438 40.703125 L 321.148438 43.007812 L 321.96875 43.007812 L 321.96875 40.703125 L 324.390625 40.703125 L 324.390625 39.921875 L 321.96875 39.921875 L 321.96875 35.527344 L 322.066406 35.527344 C 322.828125 37.558594 324.195312 39.394531 326.1875 41.015625 L 326.734375 40.332031 C 324.800781 38.925781 323.453125 37.324219 322.691406 35.527344 L 326.363281 35.527344 L 326.363281 34.746094 L 321.96875 34.746094 L 321.96875 32.714844 L 321.148438 32.714844 L 321.148438 34.746094 Z M 316.734375 34.746094 "/>
<path style=" stroke:none;fill-rule:nonzero;fill:rgb(0%,0%,0%);fill-opacity:1;" d="M 332.554688 34.863281 L 332.554688 35.644531 L 335.816406 35.644531 L 335.816406 41.621094 C 335.816406 42.011719 335.601562 42.226562 335.191406 42.226562 C 334.664062 42.226562 334.117188 42.207031 333.53125 42.167969 L 333.707031 42.96875 L 335.464844 42.96875 C 336.226562 42.96875 336.617188 42.578125 336.617188 41.835938 L 336.617188 35.644531 L 337.867188 35.644531 L 337.867188 34.863281 L 336.617188 34.863281 L 336.617188 32.65625 L 335.816406 32.65625 L 335.816406 34.863281 Z M 328.53125 35.605469 L 327.984375 36.113281 C 328.765625 36.972656 329.488281 37.851562 330.113281 38.691406 C 329.527344 39.785156 328.707031 40.742188 327.652344 41.5625 L 328.121094 42.265625 C 329.15625 41.40625 329.996094 40.449219 330.621094 39.375 C 331.011719 39.941406 331.382812 40.507812 331.734375 41.074219 L 332.320312 40.488281 C 331.910156 39.84375 331.480469 39.199219 331.011719 38.574219 C 331.597656 37.324219 331.910156 35.9375 331.96875 34.414062 L 331.96875 33.808594 L 328.160156 33.808594 L 328.160156 34.589844 L 331.226562 34.589844 C 331.148438 35.78125 330.914062 36.894531 330.484375 37.910156 C 329.878906 37.148438 329.234375 36.367188 328.53125 35.605469 Z M 333.160156 36.972656 L 332.535156 37.421875 C 333.238281 38.28125 333.804688 39.101562 334.253906 39.882812 L 334.898438 39.433594 C 334.488281 38.710938 333.902344 37.890625 333.160156 36.972656 Z M 333.160156 36.972656 "/>
<path style=" stroke:none;fill-rule:nonzero;fill:rgb(0%,0%,0%);fill-opacity:1;" d="M 339.332031 32.578125 C 339.78125 33.320312 340.132812 34.082031 340.40625 34.902344 C 340.738281 35.898438 340.894531 36.855469 340.894531 37.832031 C 340.894531 38.789062 340.738281 39.765625 340.40625 40.742188 C 340.132812 41.542969 339.78125 42.324219 339.332031 43.085938 L 340.113281 43.085938 C 340.601562 42.34375 340.992188 41.5625 341.285156 40.761719 C 341.597656 39.785156 341.773438 38.808594 341.773438 37.832031 C 341.773438 36.835938 341.597656 35.859375 341.285156 34.882812 C 340.992188 34.0625 340.601562 33.300781 340.113281 32.578125 Z M 339.332031 32.578125 "/>
<path style="fill:none;stroke-width:1;stroke-linecap:round;stroke-linejoin:round;stroke:rgb(0%,0%,0%);stroke-opacity:1;stroke-miterlimit:10;" d="M 8.996875 197.08125 L 103.953125 154.903125 " transform="matrix(1.25,0,0,1.25,227.5,-58.75)"/>
<path style="fill:none;stroke-width:1;stroke-linecap:butt;stroke-linejoin:miter;stroke:rgb(0%,0%,0%);stroke-opacity:1;stroke-miterlimit:10;" d="M 107.609375 153.28125 L 103.953125 154.903125 M 103.346875 153.53125 L 107.609375 153.28125 L 104.5625 156.275 " transform="matrix(1.25,0,0,1.25,227.5,-58.75)"/>
<path style=" stroke:none;fill-rule:nonzero;fill:rgb(0%,0%,0%);fill-opacity:1;" d="M 445.148438 204.214844 L 445.148438 202.203125 L 447.140625 202.203125 L 447.140625 204.214844 Z M 451.808594 204.214844 L 451.808594 202.203125 L 453.820312 202.203125 L 453.820312 204.214844 Z M 458.46875 204.214844 L 458.46875 202.203125 L 460.480469 202.203125 L 460.480469 204.214844 Z M 458.46875 204.214844 "/>
<path style=" stroke:none;fill-rule:nonzero;fill:rgb(0%,0%,0%);fill-opacity:1;" d="M 452.023438 117.808594 L 452.023438 115.796875 L 454.015625 115.796875 L 454.015625 117.808594 Z M 458.683594 117.808594 L 458.683594 115.796875 L 460.695312 115.796875 L 460.695312 117.808594 Z M 465.34375 117.808594 L 465.34375 115.796875 L 467.355469 115.796875 L 467.355469 117.808594 Z M 465.34375 117.808594 "/>
<path style=" stroke:none;fill-rule:nonzero;fill:rgb(0%,0%,0%);fill-opacity:1;" d="M 435.152344 31.40625 L 435.152344 29.394531 L 437.144531 29.394531 L 437.144531 31.40625 Z M 441.8125 31.40625 L 441.8125 29.394531 L 443.824219 29.394531 L 443.824219 31.40625 Z M 448.472656 31.40625 L 448.472656 29.394531 L 450.484375 29.394531 L 450.484375 31.40625 Z M 448.472656 31.40625 "/>
<path style="fill:none;stroke-width:1;stroke-linecap:round;stroke-linejoin:round;stroke:rgb(0%,0%,0%);stroke-opacity:1;stroke-miterlimit:10;" d="M -66.95 127.909375 L 36.340625 86.20625 " transform="matrix(1.25,0,0,1.25,227.5,-58.75)"/>
<path style="fill:none;stroke-width:1;stroke-linecap:butt;stroke-linejoin:miter;stroke:rgb(0%,0%,0%);stroke-opacity:1;stroke-miterlimit:10;" d="M 40.046875 84.7125 L 36.340625 86.20625 M 35.778125 84.815625 L 40.046875 84.7125 L 36.903125 87.6 " transform="matrix(1.25,0,0,1.25,227.5,-58.75)"/>
<path style=" stroke:none;fill-rule:nonzero;fill:rgb(69.803922%,85.098039%,100%);fill-opacity:1;" d="M 168.921875 132.65625 L 241.445312 132.65625 L 241.445312 98.90625 L 168.921875 98.90625 Z M 168.921875 132.65625 "/>
<path style="fill:none;stroke-width:1;stroke-linecap:round;stroke-linejoin:round;stroke:rgb(0%,0%,0%);stroke-opacity:1;stroke-miterlimit:10;" d="M -46.8625 126.125 L 11.15625 126.125 L 11.15625 153.125 L -46.8625 153.125 Z M -46.8625 126.125 " transform="matrix(1.25,0,0,1.25,227.5,-58.75)"/>
<path style=" stroke:none;fill-rule:nonzero;fill:rgb(0%,0%,0%);fill-opacity:1;" d="M 199.617188 116.515625 L 200.671875 116.789062 C 200.449219 117.660156 200.046875 118.332031 199.460938 118.800781 C 198.886719 119.257812 198.175781 119.484375 197.332031 119.484375 C 196.472656 119.484375 195.769531 119.308594 195.222656 118.957031 C 194.675781 118.605469 194.257812 118.097656 193.972656 117.433594 C 193.699219 116.757812 193.5625 116.035156 193.5625 115.265625 C 193.5625 114.417969 193.71875 113.683594 194.03125 113.058594 C 194.355469 112.433594 194.8125 111.964844 195.398438 111.652344 C 195.996094 111.328125 196.648438 111.164062 197.351562 111.164062 C 198.15625 111.164062 198.835938 111.371094 199.382812 111.789062 C 199.941406 112.191406 200.324219 112.765625 200.535156 113.507812 L 199.480469 113.742188 C 199.296875 113.15625 199.03125 112.734375 198.679688 112.472656 C 198.328125 112.199219 197.878906 112.0625 197.332031 112.0625 C 196.71875 112.0625 196.203125 112.210938 195.789062 112.511719 C 195.371094 112.8125 195.078125 113.214844 194.910156 113.722656 C 194.738281 114.21875 194.65625 114.726562 194.65625 115.246094 C 194.65625 115.9375 194.753906 116.542969 194.949219 117.0625 C 195.15625 117.570312 195.46875 117.949219 195.886719 118.195312 C 196.300781 118.441406 196.757812 118.566406 197.253906 118.566406 C 197.851562 118.566406 198.351562 118.398438 198.757812 118.058594 C 199.171875 117.707031 199.460938 117.191406 199.617188 116.515625 Z M 199.617188 116.515625 "/>
<path style=" stroke:none;fill-rule:nonzero;fill:rgb(0%,0%,0%);fill-opacity:1;" d="M 201.980469 119.347656 L 201.980469 111.300781 L 203.074219 111.300781 L 207.292969 117.609375 L 207.292969 111.300781 L 208.328125 111.300781 L 208.328125 119.347656 L 207.234375 119.347656 L 202.996094 113.019531 L 202.996094 119.347656 Z M 201.980469 119.347656 "/>
<path style=" stroke:none;fill-rule:nonzero;fill:rgb(0%,0%,0%);fill-opacity:1;" d="M 210.105469 119.347656 L 210.105469 111.300781 L 211.199219 111.300781 L 215.417969 117.609375 L 215.417969 111.300781 L 216.453125 111.300781 L 216.453125 119.347656 L 215.359375 119.347656 L 211.121094 113.019531 L 211.121094 119.347656 Z M 210.105469 119.347656 "/>
<path style="fill:none;stroke-width:1;stroke-linecap:round;stroke-linejoin:round;stroke:rgb(0%,0%,0%);stroke-opacity:1;stroke-miterlimit:10;" d="M -32.35 195.496875 L -76.15625 157.01875 " transform="matrix(1.25,0,0,1.25,227.5,-58.75)"/>
<path style="fill:none;stroke-width:1;stroke-linecap:butt;stroke-linejoin:miter;stroke:rgb(0%,0%,0%);stroke-opacity:1;stroke-miterlimit:10;" d="M -79.1625 154.378125 L -76.15625 157.01875 M -77.15 158.14375 L -79.1625 154.378125 L -75.16875 155.890625 " transform="matrix(1.25,0,0,1.25,227.5,-58.75)"/>
<path style="fill:none;stroke-width:1;stroke-linecap:round;stroke-linejoin:round;stroke:rgb(0%,0%,0%);stroke-opacity:1;stroke-miterlimit:10;" d="M 126.03125 126.125 L 91.55 88.35625 " transform="matrix(1.25,0,0,1.25,227.5,-58.75)"/>
<path style="fill:none;stroke-width:1;stroke-linecap:butt;stroke-linejoin:miter;stroke:rgb(0%,0%,0%);stroke-opacity:1;stroke-miterlimit:10;" d="M 88.85 85.403125 L 91.55 88.35625 M 90.440625 89.36875 L 88.85 85.403125 L 92.65625 87.346875 " transform="matrix(1.25,0,0,1.25,227.5,-58.75)"/>
</g>
</svg>
